  0
SECTION
  2
HEADER
  9
$ACADVER
  1
AC1014
  9
$HANDSEED
  5
FFFF
  9
$MEASUREMENT
 70
     1
  0
ENDSEC
  0
SECTION
  2
TABLES
  0
TABLE
  2
VPORT
  5
8
330
0
100
AcDbSymbolTable
 70
     4
  0
VPORT
  5
2E
330
8
100
AcDbSymbolTableRecord
100
AcDbViewportTableRecord
  2
*ACTIVE
 70
     0
 10
0.0
 20
0.0
 11
1.0
 21
1.0
 12
210.0
 22
148.5
 13
0.0
 23
0.0
 14
10.0
 24
10.0
 15
10.0
 25
10.0
 16
0.0
 26
0.0
 36
1.0
 17
0.0
 27
0.0
 37
0.0
 40
341.0
 41
1.24
 42
50.0
 43
0.0
 44
0.0
 50
0.0
 51
0.0
 71
     0
 72
   100
 73
     1
 74
     3
 75
     0
 76
     0
 77
     0
 78
     0
  0
ENDTAB
  0
TABLE
  2
LTYPE
  5
5
330
0
100
AcDbSymbolTable
 70
     1
  0
LTYPE
  5
14
330
5
100
AcDbSymbolTableRecord
100
AcDbLinetypeTableRecord
  2
BYBLOCK
 70
     0
  3

 72
    65
 73
     0
 40
0.0
  0
LTYPE
  5
15
330
5
100
AcDbSymbolTableRecord
100
AcDbLinetypeTableRecord
  2
BYLAYER
 70
     0
  3

 72
    65
 73
     0
 40
0.0
  0
LTYPE
  5
16
330
5
100
AcDbSymbolTableRecord
100
AcDbLinetypeTableRecord
  2
CONTINUOUS
 70
     0
  3
Solid line
 72
    65
 73
     0
 40
0.0
  0
ENDTAB
  0
TABLE
  2
LAYER
  5
2
100
AcDbSymbolTable
 70
2
  0
LAYER
  5
50
100
AcDbSymbolTableRecord
100
AcDbLayerTableRecord
  2
0
 70
0
  6
CONTINUOUS
  0
LAYER
  5
51
100
AcDbSymbolTableRecord
100
AcDbLayerTableRecord
  2
Layer_1
 70
0
  6
CONTINUOUS
  0
ENDTAB
  0
TABLE
  2
STYLE
  5
3
330
0
100
AcDbSymbolTable
 70
     1
  0
STYLE
  5
11
330
3
100
AcDbSymbolTableRecord
100
AcDbTextStyleTableRecord
  2
STANDARD
 70
     0
 40
0.0
 41
1.0
 50
0.0
 71
     0
 42
2.5
  3
txt
  4

  0
ENDTAB
  0
TABLE
  2
VIEW
  5
6
330
0
100
AcDbSymbolTable
 70
     0
  0
ENDTAB
  0
TABLE
  2
UCS
  5
7
330
0
100
AcDbSymbolTable
 70
     0
  0
ENDTAB
  0
TABLE
  2
APPID
  5
9
330
0
100
AcDbSymbolTable
 70
     2
  0
APPID
  5
12
330
9
100
AcDbSymbolTableRecord
100
AcDbRegAppTableRecord
  2
ACAD
 70
     0
  0
ENDTAB
  0
TABLE
  2
DIMSTYLE
  5
A
330
0
100
AcDbSymbolTable
 70
     1
  0
DIMSTYLE
105
27
330
A
100
AcDbSymbolTableRecord
100
AcDbDimStyleTableRecord
  2
ISO-25
 70
     0
  3

  4

  5

  6

  7

 40
1.0
 41
2.5
 42
0.625
 43
3.75
 44
1.25
 45
0.0
 46
0.0
 47
0.0
 48
0.0
140
2.5
141
2.5
142
0.0
143
0.03937007874016
144
1.0
145
0.0
146
1.0
147
0.625
 71
     0
 72
     0
 73
     0
 74
     0
 75
     0
 76
     0
 77
     1
 78
     8
170
     0
171
     3
172
     1
173
     0
174
     0
175
     0
176
     0
177
     0
178
     0
270
     2
271
     2
272
     2
273
     2
274
     3
340
11
275
     0
280
     0
281
     0
282
     0
283
     0
284
     8
285
     0
286
     0
287
     3
288
     0
  0
ENDTAB
  0
TABLE
  2
BLOCK_RECORD
  5
1
330
0
100
AcDbSymbolTable
 70
     1
  0
BLOCK_RECORD
  5
1F
330
1
100
AcDbSymbolTableRecord
100
AcDbBlockTableRecord
  2
*MODEL_SPACE
  0
BLOCK_RECORD
  5
1B
330
1
100
AcDbSymbolTableRecord
100
AcDbBlockTableRecord
  2
*PAPER_SPACE
  0
ENDTAB
  0
ENDSEC
  0
SECTION
  2
BLOCKS
  0
BLOCK
  5
20
330
1F
100
AcDbEntity
  8
0
100
AcDbBlockBegin
  2
*MODEL_SPACE
 70
     0
 10
0.0
 20
0.0
 30
0.0
  3
*MODEL_SPACE
  1

  0
ENDBLK
  5
21
330
1F
100
AcDbEntity
  8
0
100
AcDbBlockEnd
  0
BLOCK
  5
1C
330
1B
100
AcDbEntity
 67
     1
  8
0
100
AcDbBlockBegin
  2
*PAPER_SPACE
  1

  0
ENDBLK
  5
1D
330
1B
100
AcDbEntity
 67
     1
  8
0
100
AcDbBlockEnd
  0
ENDSEC
  0
SECTION
  2
ENTITIES
  0
SPLINE
  5
100
100
AcDbEntity
  8
Layer_1
 62
7
100
AcDbSpline
 70
0
 71
3
 72
109
 73
105
 74
103
 40
0.000000
 40
0.000000
 40
0.000000
 40
0.000000
 40
12.337684
 40
24.551090
 40
40.842996
 40
46.137391
 40
53.468619
 40
60.692296
 40
65.053920
 40
66.679706
 40
69.909770
 40
89.726889
 40
108.181133
 40
126.251865
 40
131.684929
 40
134.891143
 40
136.700899
 40
146.633821
 40
158.328850
 40
170.778662
 40
171.721594
 40
173.093992
 40
175.890312
 40
192.471686
 40
206.923974
 40
223.826393
 40
225.060348
 40
225.882392
 40
227.035775
 40
242.702325
 40
258.255659
 40
267.081051
 40
267.831013
 40
269.331136
 40
271.262493
 40
290.767100
 40
309.723725
 40
328.120441
 40
329.195417
 40
329.963819
 40
331.686901
 40
341.455286
 40
350.888389
 40
358.865677
 40
360.624671
 40
362.825110
 40
364.991928
 40
370.035002
 40
375.844559
 40
385.185580
 40
392.778809
 40
395.609202
 40
397.083098
 40
403.271570
 40
411.033912
 40
417.956725
 40
431.256640
 40
444.360611
 40
459.683280
 40
462.668756
 40
463.673637
 40
464.619464
 40
472.276058
 40
484.436198
 40
495.681859
 40
512.519719
 40
530.872393
 40
546.629441
 40
547.743726
 40
548.632899
 40
550.340796
 40
565.303093
 40
583.539497
 40
601.276593
 40
612.092450
 40
622.819187
 40
637.598662
 40
649.768169
 40
657.933374
 40
664.359837
 40
671.445476
 40
678.714340
 40
685.138984
 40
686.616190
 40
687.552389
 40
688.640263
 40
689.780077
 40
692.019556
 40
694.896290
 40
698.051387
 40
701.019711
 40
703.168894
 40
707.105473
 40
712.242538
 40
717.154335
 40
720.489652
 40
722.204547
 40
724.795438
 40
741.325440
 40
755.931224
 40
765.591269
 40
768.511768
 40
776.020464
 40
785.602633
 40
785.602633
 40
785.602633
 40
785.602633
 10
58.828927
 20
75.122980
 30
0.0
 10
54.818686
 20
76.414181
 30
0.0
 10
46.838599
 20
78.983577
 30
0.0
 10
38.393326
 20
90.404087
 30
0.0
 10
34.365342
 20
101.054326
 30
0.0
 10
33.279000
 20
110.672662
 30
0.0
 10
33.611533
 20
117.293544
 30
0.0
 10
33.652413
 20
123.596219
 30
0.0
 10
35.512606
 20
127.896953
 30
0.0
 10
34.013755
 20
131.015425
 30
0.0
 10
24.530802
 20
129.484233
 30
0.0
 10
12.139465
 20
136.830149
 30
0.0
 10
-0.154165
 20
151.969691
 30
0.0
 10
0.362902
 20
167.805523
 30
0.0
 10
4.156078
 20
175.151231
 30
0.0
 10
6.243211
 20
178.905096
 30
0.0
 10
11.437431
 20
177.115440
 30
0.0
 10
18.230823
 20
172.548912
 30
0.0
 10
29.517239
 20
178.699410
 30
0.0
 10
35.612669
 20
184.928650
 30
0.0
 10
36.189967
 20
190.202149
 30
0.0
 10
34.544701
 20
191.225412
 30
0.0
 10
28.605276
 20
194.062752
 30
0.0
 10
18.910805
 20
202.731867
 30
0.0
 10
20.988915
 20
220.739119
 30
0.0
 10
30.904012
 20
227.605248
 30
0.0
 10
37.203819
 20
229.185678
 30
0.0
 10
37.884541
 20
230.129257
 30
0.0
 10
36.981529
 20
236.184916
 30
0.0
 10
37.410447
 20
246.817563
 30
0.0
 10
38.670523
 20
260.035658
 30
0.0
 10
40.793719
 20
268.466243
 30
0.0
 10
43.064766
 20
271.388062
 30
0.0
 10
43.722763
 20
272.622802
 30
0.0
 10
47.183092
 20
279.423954
 30
0.0
 10
57.218921
 20
289.787469
 30
0.0
 10
76.691802
 20
293.598491
 30
0.0
 10
89.563050
 20
289.923835
 30
0.0
 10
94.452542
 20
284.038344
 30
0.0
 10
95.706054
 20
284.552330
 30
0.0
 10
97.922898
 20
288.003909
 30
0.0
 10
103.650551
 20
292.329905
 30
0.0
 10
111.760283
 20
296.463952
 30
0.0
 10
118.328244
 20
297.184199
 30
0.0
 10
122.250362
 20
296.511731
 30
0.0
 10
124.283249
 20
296.290342
 30
0.0
 10
127.400887
 20
296.045442
 30
0.0
 10
131.786101
 20
295.350322
 30
0.0
 10
137.353659
 20
291.376739
 30
0.0
 10
142.808474
 20
285.745784
 30
0.0
 10
147.193686
 20
281.920648
 30
0.0
 10
150.515024
 20
278.084906
 30
0.0
 10
153.533292
 20
280.618146
 30
0.0
 10
157.540819
 20
283.373115
 30
0.0
 10
164.254809
 20
285.791628
 30
0.0
 10
173.399797
 20
287.801212
 30
0.0
 10
185.096939
 20
283.312262
 30
0.0
 10
190.891028
 20
269.505970
 30
0.0
 10
187.765446
 20
258.026825
 30
0.0
 10
184.631789
 20
253.340394
 30
0.0
 10
183.856883
 20
251.263191
 30
0.0
 10
188.003681
 20
251.546478
 30
0.0
 10
192.721995
 20
246.357545
 30
0.0
 10
200.504120
 20
239.618199
 30
0.0
 10
208.927738
 20
228.787789
 30
0.0
 10
210.926167
 20
212.639853
 30
0.0
 10
206.931459
 20
196.069877
 30
0.0
 10
200.888684
 20
185.425592
 30
0.0
 10
195.331094
 20
182.339964
 30
0.0
 10
195.219394
 20
180.989252
 30
0.0
 10
197.612078
 20
175.629702
 30
0.0
 10
196.687003
 20
163.299526
 30
0.0
 10
191.370424
 20
147.240553
 30
0.0
 10
182.363438
 20
134.113569
 30
0.0
 10
172.059461
 20
125.770877
 30
0.0
 10
160.572335
 20
121.442745
 30
0.0
 10
148.087544
 20
119.820718
 30
0.0
 10
136.496524
 20
118.231585
 30
0.0
 10
127.857436
 20
115.727021
 30
0.0
 10
121.751384
 20
111.535658
 30
0.0
 10
118.202466
 20
105.344295
 30
0.0
 10
117.034073
 20
98.359468
 30
0.0
 10
118.266904
 20
93.287671
 30
0.0
 10
119.969795
 20
90.777643
 30
0.0
 10
119.722814
 20
89.458374
 30
0.0
 10
118.477136
 20
89.145313
 30
0.0
 10
117.214402
 20
90.019824
 30
0.0
 10
115.511328
 20
91.182967
 30
0.0
 10
113.402635
 20
92.979761
 30
0.0
 10
111.082670
 20
94.873997
 30
0.0
 10
108.877803
 20
96.540828
 30
0.0
 10
106.272091
 20
98.065697
 30
0.0
 10
103.189899
 20
100.208711
 30
0.0
 10
99.855895
 20
103.485027
 30
0.0
 10
96.781049
 20
106.720316
 30
0.0
 10
95.166551
 20
109.725688
 30
0.0
 10
92.709210
 20
110.927697
 30
0.0
 10
85.841427
 20
108.199380
 30
0.0
 10
77.062139
 20
102.675382
 30
0.0
 10
67.075364
 20
89.008541
 30
0.0
 10
72.944390
 20
81.665420
 30
0.0
 10
77.248622
 20
74.925630
 30
0.0
 10
66.445928
 20
74.601564
 30
0.0
 10
61.565345
 20
74.935664
 30
0.0
 10
58.828995
 20
75.122980
 30
0.0
 11
58.828927
 21
75.122980
 31
0.0
 11
47.531461
 21
80.081376
 31
0.0
 11
39.695072
 21
89.449317
 31
0.0
 11
34.058167
 21
104.734980
 31
0.0
 11
33.476115
 21
109.997283
 31
0.0
 11
33.559452
 21
117.328037
 31
0.0
 11
34.283068
 21
124.515380
 31
0.0
 11
34.933788
 21
128.828190
 31
0.0
 11
34.153929
 21
130.254724
 31
0.0
 11
30.944795
 21
130.621840
 31
0.0
 11
12.557355
 21
138.012391
 31
0.0
 11
1.911521
 21
153.086386
 31
0.0
 11
2.320495
 21
171.152490
 31
0.0
 11
4.669571
 21
176.051471
 31
0.0
 11
6.824887
 21
178.425166
 31
0.0
 11
8.598843
 21
178.066980
 31
0.0
 11
17.908696
 21
174.604384
 31
0.0
 11
28.767450
 21
178.947329
 31
0.0
 11
36.049039
 21
189.045660
 31
0.0
 11
36.034560
 21
189.988480
 31
0.0
 11
35.019111
 21
190.911703
 31
0.0
 11
32.550923
 21
192.226030
 31
0.0
 11
21.223569
 21
204.335242
 31
0.0
 11
22.620665
 21
218.719844
 31
0.0
 11
36.112935
 21
228.900728
 31
0.0
 11
37.251683
 21
229.376016
 31
0.0
 11
37.724197
 21
230.048687
 31
0.0
 11
37.729488
 21
231.202058
 31
0.0
 11
37.555164
 21
246.867638
 31
0.0
 11
39.408401
 21
262.310168
 31
0.0
 11
42.456682
 21
270.592409
 31
0.0
 11
42.899023
 21
271.198031
 31
0.0
 11
43.650645
 21
272.496273
 31
0.0
 11
44.548827
 21
274.206071
 31
0.0
 11
58.285104
 21
288.053251
 31
0.0
 11
76.811012
 21
292.071257
 31
0.0
 11
93.742001
 21
284.875372
 31
0.0
 11
94.595495
 21
284.221827
 31
0.0
 11
95.330069
 21
284.447311
 31
0.0
 11
96.492141
 21
285.719553
 31
0.0
 11
103.864855
 21
292.127706
 31
0.0
 11
112.420799
 21
296.100019
 31
0.0
 11
120.366960
 21
296.804042
 31
0.0
 11
122.107859
 21
296.552384
 31
0.0
 11
124.293815
 21
296.300340
 31
0.0
 11
126.451580
 21
296.102475
 31
0.0
 11
131.384721
 21
295.055234
 31
0.0
 11
136.300096
 21
291.958454
 31
0.0
 11
143.135090
 21
285.591546
 31
0.0
 11
148.567321
 21
280.286077
 31
0.0
 11
150.909509
 21
278.696964
 31
0.0
 11
152.169240
 21
279.462108
 31
0.0
 11
157.301661
 21
282.919771
 31
0.0
 11
164.545899
 21
285.708138
 31
0.0
 11
171.373240
 21
286.853888
 31
0.0
 11
183.744618
 21
281.971598
 31
0.0
 11
189.143099
 21
270.031311
 31
0.0
 11
185.733110
 21
255.092899
 31
0.0
 11
184.322200
 21
252.461854
 31
0.0
 11
184.152310
 21
251.471437
 31
0.0
 11
185.085860
 21
251.319544
 31
0.0
 11
191.767431
 21
247.580555
 31
0.0
 11
200.472836
 21
239.090269
 31
0.0
 11
207.008420
 21
229.938711
 31
0.0
 11
209.882557
 21
213.347964
 31
0.0
 11
205.808173
 21
195.453271
 31
0.0
 11
196.296290
 21
182.891080
 31
0.0
 11
195.435930
 21
182.182976
 31
0.0
 11
195.294680
 21
181.305094
 31
0.0
 11
195.777520
 21
179.666870
 31
0.0
 11
196.248623
 21
164.711991
 31
0.0
 11
190.503634
 21
147.404146
 31
0.0
 11
180.261770
 21
132.922820
 31
0.0
 11
171.743204
 21
126.258227
 31
0.0
 11
161.785846
 21
122.269003
 31
0.0
 11
147.233040
 21
119.690490
 31
0.0
 11
135.227695
 21
117.698356
 31
0.0
 11
127.484115
 21
115.108467
 31
0.0
 11
122.276030
 21
111.343460
 31
0.0
 11
118.634400
 21
105.265235
 31
0.0
 11
117.517120
 21
98.082752
 31
0.0
 11
119.250930
 21
91.896480
 31
0.0
 11
119.836040
 21
90.540094
 31
0.0
 11
119.593570
 21
89.635839
 31
0.0
 11
118.556580
 21
89.307020
 31
0.0
 11
117.529258
 21
89.800766
 31
0.0
 11
115.701756
 21
91.095177
 31
0.0
 11
113.469720
 21
92.910010
 31
0.0
 11
111.020290
 21
94.898710
 31
0.0
 11
108.622864
 21
96.648937
 31
0.0
 11
106.796480
 21
97.781770
 31
0.0
 11
103.581498
 21
100.053453
 31
0.0
 11
99.824919
 21
103.557387
 31
0.0
 11
96.616837
 21
107.276790
 31
0.0
 11
94.552533
 21
109.896521
 31
0.0
 11
92.985448
 21
110.593019
 31
0.0
 11
90.460295
 21
110.013090
 31
0.0
 11
76.697347
 21
100.857642
 31
0.0
 11
69.914647
 21
87.922268
 31
0.0
 11
74.387273
 21
79.360020
 31
0.0
 11
75.648862
 21
76.726068
 31
0.0
 11
68.404022
 21
74.753052
 31
0.0
 11
58.828995
 21
75.122980
 31
0.0
  0
LWPOLYLINE
  5
101
100
AcDbEntity
  8
Layer_1
 62
7
100
AcDbPolyline
 90
1
 70
1
 10
58.828995
 20
75.122980
 30
0.0
  0
SPLINE
  5
102
100
AcDbEntity
  8
Layer_1
 62
7
100
AcDbSpline
 70
0
 71
3
 72
43
 73
39
 74
37
 40
0.000000
 40
0.000000
 40
0.000000
 40
0.000000
 40
2.121917
 40
3.248084
 40
5.294208
 40
17.557488
 40
30.936827
 40
46.146507
 40
48.017287
 40
49.398070
 40
49.990126
 40
50.524406
 40
51.889517
 40
53.795052
 40
69.473264
 40
84.839741
 40
99.853459
 40
102.401317
 40
103.385753
 40
104.826726
 40
109.308873
 40
114.879145
 40
120.150712
 40
122.162730
 40
122.755805
 40
123.741364
 40
143.747538
 40
165.242177
 40
184.614876
 40
191.682536
 40
195.931680
 40
203.650051
 40
224.311145
 40
241.645899
 40
257.821750
 40
260.610978
 40
263.058015
 40
266.548503
 40
266.548503
 40
266.548503
 40
266.548503
 10
69.066392
 20
76.943090
 30
0.0
 10
69.834675
 20
76.979044
 30
0.0
 10
71.010708
 20
77.034079
 30
0.0
 10
71.943529
 20
78.843607
 30
0.0
 10
68.327806
 20
83.320193
 30
0.0
 10
67.792422
 20
93.259334
 30
0.0
 10
75.178906
 20
105.482300
 30
0.0
 10
84.175436
 20
110.823365
 30
0.0
 10
90.313111
 20
112.431529
 30
0.0
 10
91.340476
 20
112.919546
 30
0.0
 10
92.455151
 20
113.011990
 30
0.0
 10
91.978976
 20
113.981909
 30
0.0
 10
91.647699
 20
115.049470
 30
0.0
 10
88.886644
 20
120.952184
 30
0.0
 10
87.257440
 20
132.200985
 30
0.0
 10
92.295052
 20
147.063445
 30
0.0
 10
100.892070
 20
155.603514
 30
0.0
 10
106.563731
 20
157.289618
 30
0.0
 10
107.756146
 20
159.172330
 30
0.0
 10
104.389521
 20
159.084838
 30
0.0
 10
101.451763
 20
160.506510
 30
0.0
 10
97.176081
 20
163.645782
 30
0.0
 10
94.212354
 20
167.066427
 30
0.0
 10
93.664565
 20
169.514990
 30
0.0
 10
92.509191
 20
170.509584
 30
0.0
 10
90.286208
 20
160.712194
 30
0.0
 10
81.547262
 20
152.793350
 30
0.0
 10
65.871502
 20
138.307953
 30
0.0
 10
51.242107
 20
131.463664
 30
0.0
 10
40.315823
 20
131.541192
 30
0.0
 10
35.842367
 20
126.316013
 30
0.0
 10
35.815538
 20
115.035813
 30
0.0
 10
35.322034
 20
99.818908
 30
0.0
 10
44.333201
 20
82.832792
 30
0.0
 10
55.957892
 20
77.219868
 30
0.0
 10
63.046478
 20
76.315420
 30
0.0
 10
65.965725
 20
76.417098
 30
0.0
 10
67.918447
 20
76.748355
 30
0.0
 10
69.066392
 20
76.943090
 30
0.0
 11
69.066392
 21
76.943090
 31
0.0
 11
71.113580
 21
77.501262
 31
0.0
 11
71.617345
 21
78.508471
 31
0.0
 11
70.784014
 21
80.377210
 31
0.0
 11
68.987808
 21
92.508231
 31
0.0
 11
75.565191
 21
104.159186
 31
0.0
 11
88.617726
 21
111.967240
 31
0.0
 11
90.405869
 21
112.517113
 31
0.0
 11
91.722652
 21
112.932620
 31
0.0
 11
92.282992
 21
113.123800
 31
0.0
 11
92.153406
 21
113.642127
 31
0.0
 11
91.661336
 21
114.915467
 31
0.0
 11
90.913352
 21
116.668060
 31
0.0
 11
88.499526
 21
132.159341
 31
0.0
 11
93.512798
 21
146.685033
 31
0.0
 11
104.720860
 21
156.674580
 31
0.0
 11
106.920463
 21
157.960397
 31
0.0
 11
107.356140
 21
158.843176
 31
0.0
 11
105.952990
 21
159.171160
 31
0.0
 11
101.683098
 21
160.534123
 31
0.0
 11
97.231388
 21
163.882287
 31
0.0
 11
94.075164
 21
168.104570
 31
0.0
 11
93.173932
 21
169.903458
 31
0.0
 11
92.684229
 21
170.238015
 31
0.0
 11
92.240357
 21
169.358070
 31
0.0
 11
81.353601
 21
152.573388
 31
0.0
 11
64.786049
 21
138.879019
 31
0.0
 11
46.765146
 21
131.769270
 31
0.0
 11
39.846518
 21
130.325526
 31
0.0
 11
37.010986
 21
127.160880
 31
0.0
 11
35.805245
 21
119.537270
 31
0.0
 11
37.276280
 21
98.928610
 31
0.0
 11
45.905986
 21
83.894586
 31
0.0
 11
60.394035
 21
76.700520
 31
0.0
 11
63.164906
 21
76.381035
 31
0.0
 11
65.610986
 21
76.449455
 31
0.0
 11
69.066392
 21
76.943090
 31
0.0
  0
SPLINE
  5
103
100
AcDbEntity
  8
Layer_1
 62
7
100
AcDbSpline
 70
0
 71
3
 72
25
 73
21
 74
19
 40
0.000000
 40
0.000000
 40
0.000000
 40
0.000000
 40
7.939162
 40
17.074707
 40
24.887956
 40
25.897399
 40
27.057854
 40
28.122370
 40
30.330441
 40
34.526101
 40
39.809548
 40
60.829277
 40
74.132042
 40
86.603499
 40
106.172651
 40
122.672654
 40
130.339093
 40
139.419069
 40
149.410098
 40
157.954717
 40
157.954717
 40
157.954717
 40
157.954717
 10
115.104270
 20
98.195720
 30
0.0
 10
115.365121
 20
100.866909
 30
0.0
 10
115.926130
 20
106.611820
 30
0.0
 10
120.811624
 20
113.662051
 30
0.0
 10
125.760769
 20
117.438980
 30
0.0
 10
128.979895
 20
118.305366
 30
0.0
 10
129.991779
 20
118.682164
 30
0.0
 10
131.316675
 20
119.346082
 30
0.0
 10
133.761950
 20
119.902370
 30
0.0
 10
137.569050
 20
120.681118
 30
0.0
 10
147.607323
 20
122.349087
 30
0.0
 10
160.647121
 20
124.259997
 30
0.0
 10
175.506569
 20
130.089652
 30
0.0
 10
185.785549
 20
141.872362
 30
0.0
 10
191.644469
 20
156.544763
 30
0.0
 10
197.597165
 20
171.330962
 30
0.0
 10
190.357248
 20
182.050380
 30
0.0
 10
180.438985
 20
180.115535
 30
0.0
 10
172.520807
 20
186.599155
 30
0.0
 10
170.468971
 20
192.456885
 30
0.0
 10
169.523110
 20
195.157200
 30
0.0
 11
115.104270
 21
98.195720
 31
0.0
 11
116.490163
 21
106.012983
 31
0.0
 11
121.461637
 21
113.677357
 31
0.0
 11
127.960110
 21
118.015180
 31
0.0
 11
128.926689
 21
118.306213
 31
0.0
 11
130.013331
 21
118.713477
 31
0.0
 11
130.984790
 21
119.148750
 31
0.0
 11
133.109894
 21
119.748340
 31
0.0
 11
137.220992
 21
120.586457
 31
0.0
 11
142.428050
 21
121.481640
 31
0.0
 11
163.037386
 21
125.614954
 31
0.0
 11
175.146724
 21
131.121996
 31
0.0
 11
183.662040
 21
140.233890
 31
0.0
 11
192.178477
 21
157.852687
 31
0.0
 11
194.812883
 21
174.141026
 31
0.0
 11
190.127440
 21
180.209050
 31
0.0
 11
181.141041
 21
181.509285
 31
0.0
 11
173.054069
 21
187.376271
 31
0.0
 11
169.523110
 21
195.157200
 31
0.0
  0
LWPOLYLINE
  5
104
100
AcDbEntity
  8
Layer_1
 62
7
100
AcDbPolyline
 90
1
 70
1
 10
69.066392
 20
76.943090
 30
0.0
  0
SPLINE
  5
105
100
AcDbEntity
  8
Layer_1
 62
7
100
AcDbSpline
 70
0
 71
3
 72
31
 73
27
 74
25
 40
0.000000
 40
0.000000
 40
0.000000
 40
0.000000
 40
1.192483
 40
2.036103
 40
4.183776
 40
6.127491
 40
8.928265
 40
12.003512
 40
16.741472
 40
20.085045
 40
25.810055
 40
37.466148
 40
49.463084
 40
62.765515
 40
66.218349
 40
69.461856
 40
74.816113
 40
87.785409
 40
96.932316
 40
105.994313
 40
116.043448
 40
126.277965
 40
138.817182
 40
144.515228
 40
146.356590
 40
148.347627
 40
148.347627
 40
148.347627
 40
148.347627
 10
169.523110
 20
195.157200
 30
0.0
 10
169.540041
 20
195.671760
 30
0.0
 10
169.568949
 20
196.550344
 30
0.0
 10
167.849396
 20
196.097940
 30
0.0
 10
167.012135
 20
194.713767
 30
0.0
 10
165.082723
 20
193.374817
 30
0.0
 10
162.845622
 20
192.057989
 30
0.0
 10
159.712357
 20
190.458690
 30
0.0
 10
155.990127
 20
189.264326
 30
0.0
 10
153.571507
 20
184.994123
 30
0.0
 10
154.009880
 20
177.979492
 30
0.0
 10
150.638873
 20
168.262171
 30
0.0
 10
140.808583
 20
159.987953
 30
0.0
 10
131.265146
 20
157.634763
 30
0.0
 10
124.559858
 20
157.345629
 30
0.0
 10
120.799560
 20
155.784195
 30
0.0
 10
114.652637
 20
152.082932
 30
0.0
 10
106.734446
 20
147.427043
 30
0.0
 10
99.555098
 20
139.479182
 30
0.0
 10
97.200974
 20
130.129340
 30
0.0
 10
97.156671
 20
120.176862
 30
0.0
 10
101.365745
 20
109.921591
 30
0.0
 10
108.298818
 20
102.431486
 30
0.0
 10
111.819890
 20
98.082523
 30
0.0
 10
115.546919
 20
95.520353
 30
0.0
 10
115.255612
 20
97.281010
 30
0.0
 10
115.104270
 20
98.195720
 30
0.0
 11
169.523110
 21
195.157200
 31
0.0
 11
169.276940
 21
196.323997
 31
0.0
 11
168.442790
 21
196.197946
 31
0.0
 11
166.853200
 21
194.753750
 31
0.0
 11
165.317761
 21
193.561922
 31
0.0
 11
162.911973
 21
192.127865
 31
0.0
 11
160.156680
 21
190.762030
 31
0.0
 11
155.965050
 21
188.553298
 31
0.0
 11
154.230717
 21
185.694702
 31
0.0
 11
153.628160
 21
180.001490
 31
0.0
 11
149.809149
 21
168.988786
 31
0.0
 11
140.780855
 21
161.088381
 31
0.0
 11
127.960330
 21
157.540310
 31
0.0
 11
124.531055
 21
157.137653
 31
0.0
 11
121.491275
 21
156.006247
 31
0.0
 11
116.817980
 21
153.393130
 31
0.0
 11
106.073594
 21
146.129466
 31
0.0
 11
100.210795
 21
139.108534
 31
0.0
 11
97.634695
 21
130.420410
 31
0.0
 11
97.802909
 21
120.372683
 31
0.0
 11
101.600376
 21
110.868757
 31
0.0
 11
109.377200
 21
101.032450
 31
0.0
 11
113.425111
 21
97.022195
 31
0.0
 11
115.075152
 21
96.204895
 31
0.0
 11
115.104270
 21
98.195720
 31
0.0
  0
LWPOLYLINE
  5
106
100
AcDbEntity
  8
Layer_1
 62
7
100
AcDbPolyline
 90
1
 70
1
 10
115.104270
 20
98.195720
 30
0.0
  0
SPLINE
  5
107
100
AcDbEntity
  8
Layer_1
 62
7
100
AcDbSpline
 70
0
 71
3
 72
19
 73
15
 74
13
 40
0.000000
 40
0.000000
 40
0.000000
 40
0.000000
 40
15.290482
 40
30.603505
 40
47.803147
 40
54.634349
 40
56.379738
 40
64.023177
 40
81.660345
 40
97.960929
 40
116.408919
 40
119.817794
 40
120.250422
 40
123.658473
 40
123.658473
 40
123.658473
 40
123.658473
 10
98.814672
 20
110.480670
 30
0.0
 10
96.599994
 20
115.262873
 30
0.0
 10
92.167373
 20
124.834329
 30
0.0
 10
98.412337
 20
141.377477
 30
0.0
 10
104.268871
 20
150.261129
 30
0.0
 10
117.278354
 20
155.405873
 30
0.0
 10
112.232945
 20
159.456234
 30
0.0
 10
103.700621
 20
151.881092
 30
0.0
 10
92.672155
 20
145.316273
 30
0.0
 10
88.933008
 20
124.522156
 30
0.0
 10
95.271372
 20
117.133077
 30
0.0
 10
99.261809
 20
106.615749
 30
0.0
 10
101.455666
 20
108.160231
 30
0.0
 10
100.056357
 20
109.389696
 30
0.0
 10
98.814672
 20
110.480670
 30
0.0
 11
98.814672
 21
110.480670
 31
0.0
 11
94.275194
 21
125.081765
 31
0.0
 11
98.297248
 21
139.857142
 31
0.0
 11
110.192940
 21
152.279710
 31
0.0
 11
115.406600
 21
156.693672
 31
0.0
 11
114.066087
 21
157.811441
 31
0.0
 11
106.972380
 21
154.965130
 31
0.0
 11
94.094465
 21
142.914030
 31
0.0
 11
90.902263
 21
126.929073
 31
0.0
 11
97.970658
 21
109.888940
 31
0.0
 11
100.168501
 21
107.283194
 31
0.0
 11
100.522742
 21
107.531550
 31
0.0
 11
98.814672
 21
110.480670
 31
0.0
  0
LWPOLYLINE
  5
108
100
AcDbEntity
  8
Layer_1
 62
7
100
AcDbPolyline
 90
1
 70
1
 10
98.814672
 20
110.480670
 30
0.0
  0
SPLINE
  5
109
100
AcDbEntity
  8
Layer_1
 62
7
100
AcDbSpline
 70
0
 71
3
 72
148
 73
144
 74
142
 40
0.000000
 40
0.000000
 40
0.000000
 40
0.000000
 40
1.104233
 40
2.967400
 40
5.188112
 40
15.241379
 40
23.846411
 40
35.181158
 40
44.576344
 40
51.047840
 40
57.595582
 40
62.098615
 40
64.317155
 40
66.794779
 40
72.640386
 40
78.585556
 40
84.803076
 40
87.274335
 40
89.253896
 40
93.008478
 40
111.799097
 40
125.551986
 40
137.913727
 40
151.476691
 40
165.108561
 40
177.447044
 40
178.965452
 40
179.730711
 40
181.957777
 40
188.923326
 40
194.834606
 40
200.864324
 40
207.358611
 40
213.049987
 40
220.972021
 40
223.027166
 40
224.555786
 40
225.265425
 40
229.476631
 40
234.236680
 40
237.976086
 40
239.408118
 40
240.465128
 40
242.910276
 40
245.271503
 40
246.260240
 40
247.225351
 40
256.908854
 40
268.933230
 40
276.979584
 40
287.897551
 40
300.870359
 40
314.316820
 40
325.268228
 40
338.244521
 40
350.948174
 40
369.181233
 40
384.291455
 40
402.422059
 40
405.960419
 40
408.806467
 40
410.346255
 40
411.118763
 40
411.945078
 40
412.647931
 40
413.645261
 40
415.277201
 40
417.203006
 40
421.936392
 40
427.927564
 40
435.320843
 40
441.626382
 40
448.016231
 40
454.940542
 40
480.247712
 40
497.176278
 40
517.594473
 40
521.982471
 40
524.589005
 40
528.782881
 40
546.858179
 40
565.168818
 40
585.950746
 40
587.502326
 40
588.573032
 40
590.767249
 40
604.600658
 40
615.782999
 40
627.528717
 40
629.703545
 40
631.364709
 40
632.169472
 40
632.469704
 40
632.752206
 40
633.032130
 40
638.364026
 40
647.593390
 40
655.417308
 40
659.387642
 40
662.876573
 40
665.112871
 40
666.119396
 40
666.653675
 40
668.153479
 40
676.648023
 40
688.134008
 40
699.603750
 40
718.333343
 40
737.956983
 40
762.921742
 40
767.454969
 40
769.410883
 40
771.928380
 40
778.073416
 40
783.266389
 40
787.639802
 40
788.727059
 40
790.151719
 40
791.639826
 40
797.507439
 40
803.766546
 40
810.385088
 40
812.514403
 40
814.225234
 40
815.193455
 40
823.730497
 40
836.050703
 40
844.624372
 40
845.698136
 40
847.593565
 40
850.171066
 40
857.163062
 40
863.162877
 40
868.867341
 40
871.306377
 40
873.239763
 40
877.753079
 40
891.757759
 40
905.963682
 40
921.928654
 40
928.671314
 40
937.365249
 40
942.583664
 40
942.583664
 40
942.583664
 40
942.583664
 10
44.302688
 20
134.247480
 30
0.0
 10
44.607795
 20
134.453498
 30
0.0
 10
45.427709
 20
135.007128
 30
0.0
 10
46.926483
 20
135.872639
 30
0.0
 10
51.036500
 20
138.172015
 30
0.0
 10
57.174140
 20
141.535357
 30
0.0
 10
64.540932
 20
148.430217
 30
0.0
 10
70.219706
 20
156.418460
 30
0.0
 10
75.483246
 20
163.794228
 30
0.0
 10
79.141406
 20
170.354262
 30
0.0
 10
80.694690
 20
176.050819
 30
0.0
 10
82.111409
 20
180.148970
 30
0.0
 10
82.011503
 20
183.526317
 30
0.0
 10
78.655356
 20
185.346373
 30
0.0
 10
75.490435
 20
188.984642
 30
0.0
 10
74.043147
 20
195.079263
 30
0.0
 10
75.029740
 20
199.957055
 30
0.0
 10
76.950221
 20
203.150847
 30
0.0
 10
76.274998
 20
205.965832
 30
0.0
 10
71.656037
 20
212.690576
 30
0.0
 10
66.076664
 20
223.544298
 30
0.0
 10
62.452001
 20
238.351632
 30
0.0
 10
65.247787
 20
251.802171
 30
0.0
 10
74.737745
 20
262.121574
 30
0.0
 10
87.825298
 20
265.531675
 30
0.0
 10
97.429301
 20
264.943583
 30
0.0
 10
101.159683
 20
260.000520
 30
0.0
 10
102.530660
 20
261.124669
 30
0.0
 10
102.493436
 20
264.623180
 30
0.0
 10
104.500985
 20
269.307713
 30
0.0
 10
108.286786
 20
274.533819
 30
0.0
 10
113.794813
 20
277.431559
 30
0.0
 10
120.014056
 20
279.022094
 30
0.0
 10
126.330497
 20
275.446188
 30
0.0
 10
128.643142
 20
270.600920
 30
0.0
 10
130.407109
 20
267.221332
 30
0.0
 10
131.101509
 20
265.947735
 30
0.0
 10
132.767515
 20
264.524900
 30
0.0
 10
136.394801
 20
264.894584
 30
0.0
 10
139.670998
 20
261.646945
 30
0.0
 10
141.196327
 20
258.774900
 30
0.0
 10
141.118853
 20
256.374764
 30
0.0
 10
139.402850
 20
255.730195
 30
0.0
 10
137.446097
 20
256.079366
 30
0.0
 10
135.642012
 20
256.231033
 30
0.0
 10
133.964541
 20
255.951529
 30
0.0
 10
134.020556
 20
251.476417
 30
0.0
 10
137.610501
 20
245.151815
 30
0.0
 10
143.036994
 20
236.497401
 30
0.0
 10
151.761015
 20
230.636297
 30
0.0
 10
162.519068
 20
228.201459
 30
0.0
 10
169.893241
 20
216.392188
 30
0.0
 10
169.307675
 20
203.993590
 30
0.0
 10
175.022341
 20
191.555111
 30
0.0
 10
188.905375
 20
189.311983
 30
0.0
 10
202.320344
 20
196.945857
 30
0.0
 10
208.490685
 20
212.267115
 30
0.0
 10
206.561904
 20
230.132779
 30
0.0
 10
197.508372
 20
239.405071
 30
0.0
 10
191.237746
 20
244.597117
 30
0.0
 10
189.181747
 20
246.256885
 30
0.0
 10
187.816291
 20
247.307047
 30
0.0
 10
186.914505
 20
247.838896
 30
0.0
 10
186.276544
 20
248.266174
 30
0.0
 10
185.631060
 20
248.812435
 30
0.0
 10
184.619943
 20
249.294151
 30
0.0
 10
183.191625
 20
249.807073
 30
0.0
 10
180.521609
 20
250.526829
 30
0.0
 10
176.546982
 20
251.982562
 30
0.0
 10
171.277683
 20
254.968097
 30
0.0
 10
165.793015
 20
258.577413
 30
0.0
 10
160.512187
 20
262.710448
 30
0.0
 10
155.879033
 20
267.366068
 30
0.0
 10
148.017743
 20
277.493391
 30
0.0
 10
137.759646
 20
291.288292
 30
0.0
 10
114.478754
 20
294.962182
 30
0.0
 10
104.098945
 20
283.302321
 30
0.0
 10
99.881320
 20
274.828471
 30
0.0
 10
95.968743
 20
273.563729
 30
0.0
 10
88.611403
 20
278.346192
 30
0.0
 10
73.334173
 20
278.426883
 30
0.0
 10
59.184160
 20
262.076763
 30
0.0
 10
58.200979
 20
250.602828
 30
0.0
 10
59.963829
 20
240.317492
 30
0.0
 10
57.884212
 20
240.730486
 30
0.0
 10
55.463333
 20
246.083083
 30
0.0
 10
51.613407
 20
254.284055
 30
0.0
 10
52.252036
 20
267.183073
 30
0.0
 10
57.217512
 20
274.296809
 30
0.0
 10
60.872784
 20
278.010737
 30
0.0
 10
62.015389
 20
279.014621
 30
0.0
 10
62.759539
 20
279.629879
 30
0.0
 10
63.234738
 20
279.664985
 30
0.0
 10
63.467327
 20
279.877388
 30
0.0
 10
63.777905
 20
281.871601
 30
0.0
 10
69.614410
 20
283.908808
 30
0.0
 10
76.286891
 20
285.000120
 30
0.0
 10
83.772238
 20
284.656800
 30
0.0
 10
88.074087
 20
281.952683
 30
0.0
 10
90.891964
 20
280.083146
 30
0.0
 10
92.533577
 20
279.084367
 30
0.0
 10
93.547169
 20
277.540905
 30
0.0
 10
94.217267
 20
278.637004
 30
0.0
 10
93.093333
 20
282.082870
 30
0.0
 10
87.760629
 20
287.484493
 30
0.0
 10
77.392299
 20
290.451266
 30
0.0
 10
63.213702
 20
289.931806
 30
0.0
 10
48.456743
 20
279.996945
 30
0.0
 10
39.160302
 20
260.131236
 30
0.0
 10
39.892571
 20
243.330493
 30
0.0
 10
39.631089
 20
233.032760
 30
0.0
 10
41.079131
 20
229.943715
 30
0.0
 10
45.108236
 20
230.535846
 30
0.0
 10
49.424957
 20
229.533816
 30
0.0
 10
54.346976
 20
226.848787
 30
0.0
 10
55.557629
 20
223.276966
 30
0.0
 10
55.860049
 20
221.004464
 30
0.0
 10
56.389662
 20
219.760515
 30
0.0
 10
57.929273
 20
217.280461
 30
0.0
 10
59.637051
 20
212.928698
 30
0.0
 10
58.986361
 20
206.484756
 30
0.0
 10
56.544551
 20
202.015834
 30
0.0
 10
54.523301
 20
199.201275
 30
0.0
 10
53.662904
 20
197.810314
 30
0.0
 10
53.029299
 20
194.101030
 30
0.0
 10
49.556130
 20
187.442616
 30
0.0
 10
42.174969
 20
180.764583
 30
0.0
 10
35.244996
 20
177.654576
 30
0.0
 10
31.366329
 20
177.493773
 30
0.0
 10
29.678955
 20
176.636819
 30
0.0
 10
26.375074
 20
174.773526
 30
0.0
 10
21.722236
 20
172.346460
 30
0.0
 10
15.293557
 20
171.671308
 30
0.0
 10
10.880788
 20
172.769831
 30
0.0
 10
7.614752
 20
175.025536
 30
0.0
 10
5.224107
 20
172.536803
 30
0.0
 10
3.237927
 20
166.231585
 30
0.0
 10
1.482447
 20
154.682678
 30
0.0
 10
9.774922
 20
141.562249
 30
0.0
 10
20.598639
 20
134.375498
 30
0.0
 10
31.102547
 20
133.445730
 30
0.0
 10
38.011504
 20
133.108906
 30
0.0
 10
42.586603
 20
133.936868
 30
0.0
 10
44.302688
 20
134.247430
 30
0.0
 11
44.302688
 21
134.247480
 31
0.0
 11
45.223179
 21
134.857420
 31
0.0
 11
46.824756
 21
135.809440
 31
0.0
 11
48.760684
 21
136.897440
 31
0.0
 11
57.337989
 21
142.141297
 31
0.0
 11
63.677244
 21
147.960267
 31
0.0
 11
70.594669
 21
156.939450
 31
0.0
 11
75.880440
 21
164.706698
 31
0.0
 11
78.889120
 21
170.436279
 31
0.0
 11
80.946246
 21
176.652480
 31
0.0
 11
82.000466
 21
181.030371
 31
0.0
 11
81.692028
 21
183.227366
 31
0.0
 11
79.798820
 21
184.825610
 31
0.0
 11
75.922446
 21
189.201092
 31
0.0
 11
74.494505
 21
194.972229
 31
0.0
 11
75.783273
 21
201.054715
 31
0.0
 11
76.678815
 21
203.358001
 31
0.0
 11
76.348592
 21
205.309824
 31
0.0
 11
74.509557
 21
208.583177
 31
0.0
 11
66.094255
 21
225.384071
 31
0.0
 11
63.434675
 21
238.877350
 31
0.0
 11
66.161941
 21
250.934492
 31
0.0
 11
75.337731
 21
260.922429
 31
0.0
 11
88.384619
 21
264.872944
 31
0.0
 11
100.174020
 21
261.233136
 31
0.0
 11
101.401111
 21
260.338816
 31
0.0
 11
102.026149
 21
260.780348
 31
0.0
 11
102.584880
 21
262.936187
 31
0.0
 11
104.894777
 21
269.507583
 31
0.0
 11
108.551427
 21
274.152165
 31
0.0
 11
113.779830
 21
277.155713
 31
0.0
 11
120.193713
 21
278.174473
 31
0.0
 11
125.233531
 21
275.530236
 31
0.0
 11
129.545020
 21
268.884208
 31
0.0
 11
130.497761
 21
267.063245
 31
0.0
 11
131.334796
 21
265.784163
 31
0.0
 11
131.874910
 21
265.323876
 31
0.0
 11
135.958006
 21
264.293059
 31
0.0
 11
139.656380
 21
261.296379
 31
0.0
 11
141.101790
 21
257.847618
 31
0.0
 11
140.837903
 21
256.440110
 31
0.0
 11
139.890097
 21
255.972205
 31
0.0
 11
137.445970
 21
256.042842
 31
0.0
 11
135.085864
 21
256.115591
 31
0.0
 11
134.152273
 21
255.790001
 31
0.0
 11
133.992020
 21
254.838288
 31
0.0
 11
137.343707
 21
245.753332
 31
0.0
 11
144.476719
 21
236.073158
 31
0.0
 11
151.141480
 21
231.564858
 31
0.0
 11
161.131616
 21
227.160406
 31
0.0
 11
168.441770
 21
216.443346
 31
0.0
 11
170.517840
 21
203.158119
 31
0.0
 11
175.845958
 21
193.590231
 31
0.0
 11
188.526739
 21
190.836689
 31
0.0
 11
199.736590
 21
196.813480
 31
0.0
 11
207.199510
 21
213.449262
 31
0.0
 11
205.241680
 21
228.432111
 31
0.0
 11
193.770300
 21
242.472275
 31
0.0
 11
191.053462
 21
244.739163
 31
0.0
 11
188.833131
 21
246.519647
 31
0.0
 11
187.590000
 21
247.428257
 31
0.0
 11
186.933753
 21
247.835819
 31
0.0
 11
186.252007
 21
248.302746
 31
0.0
 11
185.692360
 21
248.727948
 31
0.0
 11
184.808683
 21
249.190315
 31
0.0
 11
183.277433
 21
249.754674
 31
0.0
 11
181.430110
 21
250.298843
 31
0.0
 11
176.990960
 21
251.941673
 31
0.0
 11
171.718407
 21
254.786726
 31
0.0
 11
165.552570
 21
258.866313
 31
0.0
 11
160.618057
 21
262.791922
 31
0.0
 11
156.105220
 21
267.315689
 31
0.0
 11
151.751920
 21
272.700377
 31
0.0
 11
133.540949
 21
290.273464
 31
0.0
 11
116.718258
 21
292.163814
 31
0.0
 11
101.706220
 21
278.323965
 31
0.0
 11
99.068115
 21
274.817553
 31
0.0
 11
96.577720
 21
274.048170
 31
0.0
 11
92.653282
 21
275.527153
 31
0.0
 11
74.580701
 21
275.840493
 31
0.0
 11
61.711221
 21
262.815287
 31
0.0
 11
59.660172
 21
242.134819
 31
0.0
 11
59.534513
 21
240.588337
 31
0.0
 11
58.471201
 21
240.713962
 31
0.0
 11
57.111305
 21
242.435958
 31
0.0
 11
52.453555
 21
255.461647
 31
0.0
 11
53.226290
 21
266.617257
 31
0.0
 11
59.475220
 21
276.562747
 31
0.0
 11
61.007615
 21
278.106002
 31
0.0
 11
62.251768
 21
279.206707
 31
0.0
 11
62.938327
 21
279.626564
 31
0.0
 11
63.229539
 21
279.699606
 31
0.0
 11
63.437241
 21
279.891093
 31
0.0
 11
63.516467
 21
280.159571
 31
0.0
 11
67.895833
 21
283.200998
 31
0.0
 11
76.995375
 21
284.743554
 31
0.0
 11
84.757265
 21
283.760315
 31
0.0
 11
88.228948
 21
281.833926
 31
0.0
 11
91.156574
 21
279.936127
 31
0.0
 11
92.871240
 21
278.500526
 31
0.0
 11
93.642357
 21
277.853633
 31
0.0
 11
93.958573
 21
278.284285
 31
0.0
 11
93.808174
 21
279.776530
 31
0.0
 11
88.209267
 21
286.164762
 31
0.0
 11
77.326828
 21
289.839049
 31
0.0
 11
65.874464
 21
289.207915
 31
0.0
 11
50.087727
 21
279.129393
 31
0.0
 11
41.341261
 21
261.562761
 31
0.0
 11
39.706543
 21
236.651581
 31
0.0
 11
40.145140
 21
232.139621
 31
0.0
 11
41.175845
 21
230.477320
 31
0.0
 11
43.682117
 21
230.239848
 31
0.0
 11
49.727316
 21
229.136651
 31
0.0
 11
54.040956
 21
226.245377
 31
0.0
 11
55.686873
 21
222.193500
 31
0.0
 11
55.886869
 21
221.124796
 31
0.0
 11
56.411186
 21
219.800127
 31
0.0
 11
57.146315
 21
218.506277
 31
0.0
 11
59.133271
 21
212.985326
 31
0.0
 11
58.609437
 21
206.748179
 31
0.0
 11
55.661128
 21
200.822592
 31
0.0
 11
54.459335
 21
199.064845
 31
0.0
 11
53.663800
 21
197.550227
 31
0.0
 11
53.446744
 21
196.606650
 31
0.0
 11
49.837865
 21
188.869914
 31
0.0
 11
40.765569
 21
180.534392
 31
0.0
 11
32.722398
 21
177.565350
 31
0.0
 11
31.654780
 21
177.450636
 31
0.0
 11
29.899333
 21
176.735754
 31
0.0
 11
27.639802
 21
175.495580
 31
0.0
 11
21.256386
 21
172.642507
 31
0.0
 11
15.289942
 21
172.010593
 31
0.0
 11
9.813580
 21
173.607580
 31
0.0
 11
7.525789
 21
174.453102
 31
0.0
 11
6.017906
 21
173.243031
 31
0.0
 11
4.207521
 21
169.108720
 31
0.0
 11
3.171281
 21
155.142430
 31
0.0
 11
10.150404
 21
142.769067
 31
0.0
 11
23.766184
 21
134.432950
 31
0.0
 11
30.449812
 21
133.542681
 31
0.0
 11
39.143392
 21
133.464152
 31
0.0
 11
44.302688
 21
134.247430
 31
0.0
  0
LWPOLYLINE
  5
10a
100
AcDbEntity
  8
Layer_1
 62
7
100
AcDbPolyline
 90
1
 70
1
 10
44.302688
 20
134.247430
 30
0.0
  0
SPLINE
  5
10b
100
AcDbEntity
  8
Layer_1
 62
7
100
AcDbSpline
 70
0
 71
3
 72
25
 73
21
 74
19
 40
0.000000
 40
0.000000
 40
0.000000
 40
0.000000
 40
24.122935
 40
45.206673
 40
56.269363
 40
57.919779
 40
59.137617
 40
59.975954
 40
66.444967
 40
75.460933
 40
84.151972
 40
87.569801
 40
91.100815
 40
93.981178
 40
99.700249
 40
106.025315
 40
111.560633
 40
115.101866
 40
116.208122
 40
120.969242
 40
120.969242
 40
120.969242
 40
120.969242
 10
59.413418
 20
138.416400
 30
0.0
 10
65.976357
 20
143.214323
 30
0.0
 10
78.275385
 20
152.205690
 30
0.0
 10
90.770510
 20
165.196441
 30
0.0
 10
91.069550
 20
181.125230
 30
0.0
 10
86.459257
 20
182.079245
 30
0.0
 10
85.058615
 20
182.083798
 30
0.0
 10
83.652082
 20
179.371681
 30
0.0
 10
83.523135
 20
173.926372
 30
0.0
 10
79.573731
 20
166.634393
 30
0.0
 10
76.113990
 20
160.547460
 30
0.0
 10
72.937822
 20
156.399824
 30
0.0
 10
71.029281
 20
153.741748
 30
0.0
 10
68.752463
 20
150.384012
 30
0.0
 10
65.722134
 20
146.550778
 30
0.0
 10
61.025492
 20
142.283523
 30
0.0
 10
58.409422
 20
139.626673
 30
0.0
 10
52.671519
 20
136.930682
 30
0.0
 10
56.556271
 20
136.278976
 30
0.0
 10
58.133536
 20
137.458924
 30
0.0
 10
59.413418
 20
138.416400
 30
0.0
 11
59.413418
 21
138.416400
 31
0.0
 11
78.458578
 21
153.221731
 31
0.0
 11
90.047473
 21
170.834839
 31
0.0
 11
87.881859
 21
181.683490
 31
0.0
 11
86.271523
 21
182.045001
 31
0.0
 11
85.068770
 21
181.853909
 31
0.0
 11
84.596170
 21
181.161480
 31
0.0
 11
83.123122
 21
174.862413
 31
0.0
 11
79.518743
 21
166.598267
 31
0.0
 11
75.005181
 21
159.171160
 31
0.0
 11
72.975788
 21
156.421048
 31
0.0
 11
70.915538
 21
153.553396
 31
0.0
 11
69.270464
 21
151.189030
 31
0.0
 11
65.671042
 21
146.744716
 31
0.0
 11
61.142734
 21
142.328734
 31
0.0
 11
56.741926
 21
138.971260
 31
0.0
 11
53.934011
 21
136.813496
 31
0.0
 11
55.017151
 21
136.588530
 31
0.0
 11
59.413418
 21
138.416400
 31
0.0
  0
LWPOLYLINE
  5
10c
100
AcDbEntity
  8
Layer_1
 62
7
100
AcDbPolyline
 90
1
 70
1
 10
59.413418
 20
138.416400
 30
0.0
  0
SPLINE
  5
10d
100
AcDbEntity
  8
Layer_1
 62
7
100
AcDbSpline
 70
0
 71
3
 72
58
 73
54
 74
52
 40
0.000000
 40
0.000000
 40
0.000000
 40
0.000000
 40
10.885776
 40
18.873259
 40
28.501710
 40
34.659968
 40
39.237903
 40
43.175127
 40
54.683893
 40
69.889575
 40
86.968471
 40
96.246507
 40
108.172710
 40
117.578177
 40
120.952295
 40
124.778310
 40
127.765563
 40
129.476146
 40
130.833233
 40
134.350476
 40
143.760306
 40
152.286433
 40
161.030881
 40
163.637320
 40
165.188777
 40
166.287969
 40
168.420132
 40
172.713329
 40
177.201237
 40
178.906258
 40
180.265079
 40
181.039159
 40
184.043171
 40
190.047007
 40
196.764554
 40
214.378816
 40
230.488297
 40
247.086821
 40
248.889326
 40
250.496664
 40
252.757864
 40
255.616613
 40
256.738312
 40
259.768935
 40
268.600676
 40
275.275288
 40
280.213018
 40
281.359837
 40
283.150385
 40
285.197164
 40
293.578058
 40
303.593010
 40
311.078120
 40
311.078120
 40
311.078120
 40
311.078120
 10
134.131050
 20
161.664330
 30
0.0
 10
137.602948
 20
162.856518
 30
0.0
 10
143.622365
 20
164.923478
 30
0.0
 10
150.341154
 20
172.424272
 30
0.0
 10
150.970225
 20
180.650488
 30
0.0
 10
151.882571
 20
187.229819
 30
0.0
 10
154.421917
 20
192.007609
 30
0.0
 10
161.274338
 20
193.157569
 30
0.0
 10
170.632494
 20
200.640393
 30
0.0
 10
166.037262
 20
216.287695
 30
0.0
 10
157.374344
 20
229.728825
 30
0.0
 10
143.479964
 20
227.554851
 30
0.0
 10
135.121340
 20
221.456613
 30
0.0
 10
130.846343
 20
213.726767
 30
0.0
 10
131.123266
 20
208.140135
 30
0.0
 10
130.016535
 20
204.817180
 30
0.0
 10
129.051894
 20
202.323594
 30
0.0
 10
127.029997
 20
200.685203
 30
0.0
 10
129.026616
 20
198.849487
 30
0.0
 10
133.364613
 20
197.659357
 30
0.0
 10
140.472813
 20
195.477461
 30
0.0
 10
149.547641
 20
197.110919
 30
0.0
 10
155.003813
 20
201.267081
 30
0.0
 10
158.025184
 20
204.161858
 30
0.0
 10
159.633710
 20
205.207892
 30
0.0
 10
161.427991
 20
204.174220
 30
0.0
 10
158.942283
 20
201.675409
 30
0.0
 10
156.839462
 20
199.445405
 30
0.0
 10
153.817865
 20
197.324182
 30
0.0
 10
151.730627
 20
195.979483
 30
0.0
 10
150.685812
 20
195.180542
 30
0.0
 10
149.897323
 20
193.641560
 30
0.0
 10
148.689055
 20
190.620178
 30
0.0
 10
145.867213
 20
186.165301
 30
0.0
 10
140.896869
 20
177.397461
 30
0.0
 10
130.068916
 20
167.919880
 30
0.0
 10
111.889459
 20
167.011099
 30
0.0
 10
102.208044
 20
174.900346
 30
0.0
 10
98.594006
 20
180.567880
 30
0.0
 10
96.886581
 20
181.571783
 30
0.0
 10
94.754046
 20
181.801752
 30
0.0
 10
92.444955
 20
183.088292
 30
0.0
 10
90.757232
 20
180.974538
 30
0.0
 10
93.409249
 20
176.660905
 30
0.0
 10
94.614284
 20
170.982891
 30
0.0
 10
98.516878
 20
165.056046
 30
0.0
 10
102.279503
 20
162.709603
 30
0.0
 10
104.865036
 20
162.226857
 30
0.0
 10
106.479236
 20
161.836882
 30
0.0
 10
110.429873
 20
160.832308
 30
0.0
 10
117.259004
 20
160.322130
 30
0.0
 10
125.915042
 20
160.202571
 30
0.0
 10
131.669681
 20
161.226413
 30
0.0
 10
134.131050
 20
161.664330
 30
0.0
 11
134.131050
 21
161.664330
 31
0.0
 11
144.024315
 21
166.205633
 31
0.0
 11
149.196398
 21
172.292457
 31
0.0
 11
151.169750
 21
181.716520
 31
0.0
 11
152.406421
 21
187.749329
 31
0.0
 11
154.949119
 21
191.556188
 31
0.0
 11
158.646230
 21
192.910110
 31
0.0
 11
167.469827
 21
200.299009
 31
0.0
 11
165.492577
 21
215.375589
 31
0.0
 11
154.038500
 21
228.044164
 31
0.0
 11
144.805909
 21
227.126978
 31
0.0
 11
135.100007
 21
220.196626
 31
0.0
 11
131.115930
 21
211.676653
 31
0.0
 11
130.917587
 21
208.308370
 31
0.0
 11
129.915677
 21
204.615869
 31
0.0
 11
128.488080
 21
201.991816
 31
0.0
 11
127.519689
 21
200.581741
 31
0.0
 11
128.371815
 21
199.525537
 31
0.0
 11
131.601530
 21
198.132721
 31
0.0
 11
140.809036
 21
196.191915
 31
0.0
 11
149.197117
 21
197.719967
 31
0.0
 11
156.417030
 21
202.653345
 31
0.0
 11
158.389545
 21
204.357078
 31
0.0
 11
159.834911
 21
204.920937
 31
0.0
 11
160.776680
 21
204.354108
 31
0.0
 11
159.753572
 21
202.483448
 31
0.0
 11
156.676595
 21
199.489496
 31
0.0
 11
153.054220
 21
196.840020
 31
0.0
 11
151.638884
 21
195.889272
 31
0.0
 11
150.629416
 21
194.979675
 31
0.0
 11
150.244360
 21
194.308160
 31
0.0
 11
149.003569
 21
191.572373
 31
0.0
 11
146.039487
 21
186.351237
 31
0.0
 11
142.489550
 21
180.648310
 31
0.0
 11
128.805663
 21
169.557166
 31
0.0
 11
112.706631
 21
168.977034
 31
0.0
 11
99.553134
 21
179.101090
 31
0.0
 11
98.443983
 21
180.521937
 31
0.0
 11
97.072813
 21
181.360643
 31
0.0
 11
94.890588
 21
181.953030
 31
0.0
 11
92.067656
 21
182.404138
 31
0.0
 11
91.351586
 21
181.540742
 31
0.0
 11
92.116548
 21
178.608250
 31
0.0
 11
95.387731
 21
170.404653
 31
0.0
 11
99.247445
 21
164.959191
 31
0.0
 11
103.531350
 21
162.503720
 31
0.0
 11
104.651696
 21
162.258732
 31
0.0
 11
106.395811
 21
161.853608
 31
0.0
 11
108.386110
 21
161.376100
 31
0.0
 11
116.714624
 21
160.440562
 31
0.0
 11
126.728949
 21
160.552675
 31
0.0
 11
134.131050
 21
161.664330
 31
0.0
  0
LWPOLYLINE
  5
10e
100
AcDbEntity
  8
Layer_1
 62
7
100
AcDbPolyline
 90
1
 70
1
 10
134.131050
 20
161.664330
 30
0.0
  0
SPLINE
  5
10f
100
AcDbEntity
  8
Layer_1
 62
7
100
AcDbSpline
 70
0
 71
3
 72
34
 73
30
 74
28
 40
0.000000
 40
0.000000
 40
0.000000
 40
0.000000
 40
2.369996
 40
3.306209
 40
4.535741
 40
5.283847
 40
5.853388
 40
6.654066
 40
7.469640
 40
8.087430
 40
9.189096
 40
10.850442
 40
12.076922
 40
13.456713
 40
14.971906
 40
16.413524
 40
18.292036
 40
19.698391
 40
20.661945
 40
22.730586
 40
24.696821
 40
25.565933
 40
26.382593
 40
27.630304
 40
28.701633
 40
30.241053
 40
33.994707
 40
42.677016
 40
51.815928
 40
51.815928
 40
51.815928
 40
51.815928
 10
128.110680
 20
171.633850
 30
0.0
 10
128.850474
 20
171.815141
 30
0.0
 10
129.882506
 20
172.068047
 30
0.0
 10
131.216424
 20
173.390110
 30
0.0
 10
130.151739
 20
174.136383
 30
0.0
 10
129.528416
 20
174.683444
 30
0.0
 10
128.753190
 20
174.649797
 30
0.0
 10
128.194873
 20
174.180564
 30
0.0
 10
127.587805
 20
173.627293
 30
0.0
 10
126.688319
 20
173.919351
 30
0.0
 10
126.055253
 20
174.873208
 30
0.0
 10
125.110350
 20
175.852664
 30
0.0
 10
123.536617
 20
176.123811
 30
0.0
 10
122.519439
 20
175.083691
 30
0.0
 10
121.361814
 20
174.078355
 30
0.0
 10
119.606486
 20
174.494512
 30
0.0
 10
118.504287
 20
175.602503
 30
0.0
 10
117.797870
 20
177.036622
 30
0.0
 10
116.151608
 20
176.981622
 30
0.0
 10
114.776862
 20
175.954225
 30
0.0
 10
113.448264
 20
175.192896
 30
0.0
 10
112.078127
 20
174.776595
 30
0.0
 10
111.553832
 20
175.754586
 30
0.0
 10
110.883885
 20
176.646268
 30
0.0
 10
109.486799
 20
176.536554
 30
0.0
 10
107.461629
 20
175.040913
 30
0.0
 10
112.191580
 20
170.288979
 30
0.0
 10
119.113141
 20
170.581972
 30
0.0
 10
125.060705
 20
171.277081
 30
0.0
 10
128.110680
 20
171.633540
 30
0.0
 11
128.110680
 21
171.633850
 31
0.0
 11
130.299381
 21
172.542955
 31
0.0
 11
130.863266
 21
173.290302
 31
0.0
 11
130.068080
 21
174.228080
 31
0.0
 11
129.433219
 21
174.623825
 31
0.0
 11
128.863944
 21
174.606408
 31
0.0
 11
128.192210
 21
174.170680
 31
0.0
 11
127.495503
 21
173.746700
 31
0.0
 11
126.897204
 21
173.900657
 31
0.0
 11
126.138270
 21
174.699210
 31
0.0
 11
124.881275
 21
175.785505
 31
0.0
 11
123.663545
 21
175.931742
 31
0.0
 11
122.539610
 21
175.131370
 31
0.0
 11
121.267574
 21
174.308125
 31
0.0
 11
119.846353
 21
174.549775
 31
0.0
 11
118.466070
 21
175.823990
 31
0.0
 11
117.553471
 21
176.894036
 31
0.0
 11
116.590839
 21
176.936174
 31
0.0
 11
114.753060
 21
175.986520
 31
0.0
 11
113.008879
 21
175.078823
 31
0.0
 11
112.146471
 21
174.971077
 31
0.0
 11
111.619590
 21
175.595040
 31
0.0
 11
110.746558
 21
176.486441
 31
0.0
 11
109.675579
 21
176.459053
 31
0.0
 11
108.460200
 21
175.514240
 31
0.0
 11
110.503504
 21
172.365459
 31
0.0
 11
119.021302
 21
170.683314
 31
0.0
 11
128.110680
 21
171.633540
 31
0.0
  0
LWPOLYLINE
  5
110
100
AcDbEntity
  8
Layer_1
 62
7
100
AcDbPolyline
 90
2
 70
0
 10
128.110680
 20
171.633540
 30
0.0
 10
128.110680
 20
171.633850
 30
0.0
  0
SPLINE
  5
111
100
AcDbEntity
  8
Layer_1
 62
7
100
AcDbSpline
 70
0
 71
3
 72
16
 73
12
 74
10
 40
0.000000
 40
0.000000
 40
0.000000
 40
0.000000
 40
6.042946
 40
8.708795
 40
11.715202
 40
16.145455
 40
20.910014
 40
25.433062
 40
26.308557
 40
28.627165
 40
31.683988
 40
31.683988
 40
31.683988
 40
31.683988
 10
40.328798
 20
182.950150
 30
0.0
 10
42.000178
 20
183.807172
 30
0.0
 10
44.408889
 20
185.042269
 30
0.0
 10
47.309632
 20
189.429680
 30
0.0
 10
42.576277
 20
190.149541
 30
0.0
 10
38.927986
 20
188.421644
 30
0.0
 10
36.282947
 20
185.806318
 30
0.0
 10
33.126009
 20
180.431264
 30
0.0
 10
36.052489
 20
180.650396
 30
0.0
 10
37.824654
 20
181.634450
 30
0.0
 10
39.421007
 20
182.473188
 30
0.0
 10
40.328798
 20
182.950150
 30
0.0
 11
40.328798
 21
182.950150
 31
0.0
 11
45.221427
 21
186.496892
 31
0.0
 11
46.328062
 21
188.922198
 31
0.0
 11
43.449432
 21
189.789360
 31
0.0
 11
39.254626
 21
188.364319
 31
0.0
 11
35.948425
 21
184.933567
 31
0.0
 11
34.607171
 21
180.613960
 31
0.0
 11
35.482267
 21
180.640381
 31
0.0
 11
37.628835
 21
181.516842
 31
0.0
 11
40.328798
 21
182.950150
 31
0.0
  0
LWPOLYLINE
  5
112
100
AcDbEntity
  8
Layer_1
 62
7
100
AcDbPolyline
 90
1
 70
1
 10
40.328798
 20
182.950150
 30
0.0
  0
SPLINE
  5
113
100
AcDbEntity
  8
Layer_1
 62
7
100
AcDbSpline
 70
0
 71
3
 72
52
 73
48
 74
46
 40
0.000000
 40
0.000000
 40
0.000000
 40
0.000000
 40
2.588279
 40
4.006286
 40
5.739126
 40
7.295476
 40
8.183236
 40
10.342990
 40
12.657862
 40
14.098594
 40
15.884645
 40
17.023512
 40
17.805846
 40
19.783790
 40
21.744607
 40
22.704391
 40
23.935291
 40
25.141182
 40
25.885087
 40
27.303160
 40
29.221707
 40
30.809272
 40
32.272421
 40
32.834132
 40
33.707074
 40
35.194955
 40
36.946360
 40
37.835534
 40
40.718774
 40
45.359235
 40
49.672136
 40
53.998451
 40
55.645020
 40
56.862120
 40
57.387505
 40
58.054414
 40
59.682577
 40
61.922136
 40
66.195143
 40
71.012220
 40
75.914828
 40
76.927587
 40
77.481576
 40
78.657089
 40
80.183684
 40
81.160115
 40
83.510851
 40
83.510851
 40
83.510851
 40
83.510851
 10
114.447340
 20
184.165660
 30
0.0
 10
115.002335
 20
184.837884
 30
0.0
 10
115.861387
 20
185.878391
 30
0.0
 10
118.017287
 20
186.348933
 30
0.0
 10
118.961274
 20
184.898233
 30
0.0
 10
119.475362
 20
183.263620
 30
0.0
 10
121.237652
 20
183.731493
 30
0.0
 10
121.959116
 20
185.465103
 30
0.0
 10
123.163677
 20
187.100254
 30
0.0
 10
125.205138
 20
187.577816
 30
0.0
 10
126.255892
 20
186.403369
 30
0.0
 10
126.842722
 20
185.045002
 30
0.0
 10
128.291564
 20
185.507223
 30
0.0
 10
129.251700
 20
186.729875
 30
0.0
 10
130.368638
 20
187.929880
 30
0.0
 10
131.791733
 20
188.457587
 30
0.0
 10
132.751674
 20
187.685945
 30
0.0
 10
133.593298
 20
186.925473
 30
0.0
 10
134.802869
 20
187.226300
 30
0.0
 10
135.490608
 20
188.492434
 30
0.0
 10
136.733658
 20
189.554031
 30
0.0
 10
138.490685
 20
190.112295
 30
0.0
 10
139.497879
 20
189.364687
 30
0.0
 10
140.447987
 20
188.958314
 30
0.0
 10
141.317639
 20
189.689909
 30
0.0
 10
142.011260
 20
190.619654
 30
0.0
 10
143.639419
 20
191.817096
 30
0.0
 10
141.875041
 20
193.198955
 30
0.0
 10
139.047771
 20
192.739917
 30
0.0
 10
135.146922
 20
193.611435
 30
0.0
 10
130.870795
 20
194.784064
 30
0.0
 10
127.792840
 20
196.268295
 30
0.0
 10
125.684366
 20
197.514299
 30
0.0
 10
124.719095
 20
197.921237
 30
0.0
 10
123.937728
 20
198.491901
 30
0.0
 10
123.337201
 20
197.463986
 30
0.0
 10
122.347865
 20
196.520013
 30
0.0
 10
120.682908
 20
194.269050
 30
0.0
 10
118.178440
 20
191.500566
 30
0.0
 10
114.591311
 20
188.403532
 30
0.0
 10
112.133848
 20
186.029839
 30
0.0
 10
109.952054
 20
184.997863
 30
0.0
 10
109.949913
 20
183.958134
 30
0.0
 10
110.904650
 20
183.335114
 30
0.0
 10
111.583403
 20
182.015164
 30
0.0
 10
113.356777
 20
182.608269
 30
0.0
 10
113.995913
 20
183.520877
 30
0.0
 10
114.447480
 20
184.165660
 30
0.0
 11
114.447340
 21
184.165660
 31
0.0
 11
116.381917
 21
185.885137
 31
0.0
 11
117.787273
 21
186.074126
 31
0.0
 11
118.925950
 21
184.767930
 31
0.0
 11
119.815033
 21
183.490527
 31
0.0
 11
120.686554
 21
183.659550
 31
0.0
 11
122.010270
 21
185.366100
 31
0.0
 11
123.576754
 21
187.070435
 31
0.0
 11
124.995783
 21
187.319568
 31
0.0
 11
126.321800
 21
186.123050
 31
0.0
 11
127.043150
 21
185.241761
 31
0.0
 11
127.810003
 21
185.396629
 31
0.0
 11
129.279660
 21
186.720400
 31
0.0
 11
130.747984
 21
188.019950
 31
0.0
 11
131.673496
 21
188.274144
 31
0.0
 11
132.747540
 21
187.672860
 31
0.0
 11
133.786055
 21
187.059949
 31
0.0
 11
134.511952
 21
187.222641
 31
0.0
 11
135.456820
 21
188.280070
 31
0.0
 11
136.923392
 21
189.516997
 31
0.0
 11
138.472908
 21
189.862483
 31
0.0
 11
139.801080
 21
189.248670
 31
0.0
 11
140.339279
 21
189.087855
 31
0.0
 11
141.093048
 21
189.528149
 31
0.0
 11
142.121060
 21
190.603780
 31
0.0
 11
143.150293
 21
192.020853
 31
0.0
 11
142.508481
 21
192.636247
 31
0.0
 11
139.645500
 21
192.977440
 31
0.0
 11
135.057137
 21
193.670844
 31
0.0
 11
130.924123
 21
194.903446
 31
0.0
 11
127.009720
 21
196.745850
 31
0.0
 11
125.566406
 21
197.538335
 31
0.0
 11
124.488517
 21
198.103569
 31
0.0
 11
124.009410
 21
198.319174
 31
0.0
 11
123.540851
 21
197.844601
 31
0.0
 11
122.490612
 21
196.600450
 31
0.0
 11
121.086060
 21
194.856070
 31
0.0
 11
118.227799
 21
191.679763
 31
0.0
 11
114.678608
 21
188.422851
 31
0.0
 11
110.803220
 21
185.420030
 31
0.0
 11
110.017605
 21
184.780898
 31
0.0
 11
110.002568
 21
184.227112
 31
0.0
 11
110.746120
 21
183.316640
 31
0.0
 11
111.853296
 21
182.265614
 31
0.0
 11
112.805010
 21
182.483919
 31
0.0
 11
114.447480
 21
184.165660
 31
0.0
  0
LWPOLYLINE
  5
114
100
AcDbEntity
  8
Layer_1
 62
7
100
AcDbPolyline
 90
2
 70
0
 10
114.447480
 20
184.165660
 30
0.0
 10
114.447340
 20
184.165660
 30
0.0
  0
SPLINE
  5
115
100
AcDbEntity
  8
Layer_1
 62
7
100
AcDbSpline
 70
0
 71
3
 72
22
 73
18
 74
16
 40
0.000000
 40
0.000000
 40
0.000000
 40
0.000000
 40
4.776424
 40
10.479480
 40
16.404303
 40
21.104325
 40
22.310016
 40
25.436901
 40
37.601347
 40
48.366881
 40
59.222842
 40
61.597619
 40
62.256873
 40
65.312352
 40
72.504396
 40
79.583584
 40
86.264757
 40
86.264757
 40
86.264757
 40
86.264757
 10
193.460090
 20
184.005410
 30
0.0
 10
194.789622
 20
184.893293
 30
0.0
 10
197.706616
 20
186.841310
 30
0.0
 10
201.297444
 20
191.027029
 30
0.0
 10
203.903770
 20
195.975836
 30
0.0
 10
205.972580
 20
198.941892
 30
0.0
 10
206.068396
 20
202.871657
 30
0.0
 10
201.597544
 20
194.182848
 30
0.0
 10
197.129303
 20
190.415471
 30
0.0
 10
184.726920
 20
186.869646
 30
0.0
 10
178.118399
 20
187.567170
 30
0.0
 10
173.049652
 20
193.137010
 30
0.0
 10
172.558313
 20
190.758234
 30
0.0
 10
175.832136
 20
188.230571
 30
0.0
 10
179.566716
 20
184.145533
 30
0.0
 10
186.846435
 20
182.092811
 30
0.0
 10
191.298476
 20
183.380290
 30
0.0
 10
193.460110
 20
184.005410
 30
0.0
 11
193.460090
 21
184.005410
 31
0.0
 11
197.319244
 21
186.819866
 31
0.0
 11
201.083109
 21
191.104508
 31
0.0
 11
204.149650
 21
196.174010
 31
0.0
 11
205.969214
 21
200.507530
 31
0.0
 11
205.953526
 21
201.713120
 31
0.0
 11
204.110450
 21
199.187159
 31
0.0
 11
195.627111
 21
190.468977
 31
0.0
 11
185.251592
 21
187.597506
 31
0.0
 11
174.985280
 21
191.126630
 31
0.0
 11
172.951949
 21
192.353468
 31
0.0
 11
172.796214
 21
191.712872
 31
0.0
 11
174.513390
 21
189.185570
 31
0.0
 11
180.069114
 21
184.618357
 31
0.0
 11
186.897680
 21
182.751383
 31
0.0
 11
193.460110
 21
184.005410
 31
0.0
  0
LWPOLYLINE
  5
116
100
AcDbEntity
  8
Layer_1
 62
7
100
AcDbPolyline
 90
1
 70
1
 10
193.460110
 20
184.005410
 30
0.0
  0
SPLINE
  5
117
100
AcDbEntity
  8
Layer_1
 62
7
100
AcDbSpline
 70
0
 71
3
 72
31
 73
27
 74
25
 40
0.000000
 40
0.000000
 40
0.000000
 40
0.000000
 40
4.951817
 40
8.061069
 40
9.545461
 40
10.492300
 40
12.799830
 40
17.569150
 40
27.197763
 40
37.228129
 40
49.803180
 40
54.535165
 40
56.623780
 40
57.786518
 40
59.654696
 40
62.709782
 40
66.964788
 40
80.041488
 40
89.693760
 40
96.999398
 40
107.046458
 40
114.438211
 40
122.437195
 40
125.954576
 40
126.900076
 40
129.712731
 40
129.712731
 40
129.712731
 40
129.712731
 10
85.929822
 20
187.327610
 30
0.0
 10
84.905084
 20
188.670960
 30
0.0
 10
83.236912
 20
190.857800
 30
0.0
 10
81.544354
 20
193.201365
 30
0.0
 10
81.143133
 20
195.665974
 30
0.0
 10
83.123968
 20
195.668521
 30
0.0
 10
84.637934
 20
193.224394
 30
0.0
 10
88.022598
 20
189.030216
 30
0.0
 10
94.950537
 20
183.551927
 30
0.0
 10
106.315606
 20
185.114404
 30
0.0
 10
114.366551
 20
190.996250
 30
0.0
 10
118.008954
 20
194.968799
 30
0.0
 10
120.722683
 20
197.739888
 30
0.0
 10
118.699891
 20
198.462438
 30
0.0
 10
116.839228
 20
198.725129
 30
0.0
 10
114.058323
 20
200.287805
 30
0.0
 10
108.324838
 20
203.793935
 30
0.0
 10
100.462194
 20
208.135041
 30
0.0
 10
90.284485
 20
210.745031
 30
0.0
 10
81.582708
 20
206.868492
 30
0.0
 10
76.770774
 20
199.766479
 30
0.0
 10
76.311583
 20
190.108438
 30
0.0
 10
82.059626
 20
186.869442
 30
0.0
 10
85.804091
 20
183.873312
 30
0.0
 10
88.301085
 20
185.342371
 30
0.0
 10
86.944848
 20
186.477822
 30
0.0
 10
85.929822
 20
187.327610
 30
0.0
 11
85.929822
 21
187.327610
 31
0.0
 11
82.945727
 21
191.279277
 31
0.0
 11
81.477004
 21
194.019770
 31
0.0
 11
81.548675
 21
195.502430
 31
0.0
 11
82.492017
 21
195.583728
 31
0.0
 11
84.183901
 21
194.014579
 31
0.0
 11
87.166024
 21
190.292570
 31
0.0
 11
95.161888
 21
184.928210
 31
0.0
 11
105.159923
 21
185.732906
 31
0.0
 11
115.701380
 21
192.589260
 31
0.0
 11
119.004798
 21
195.977344
 31
0.0
 11
120.051219
 21
197.784916
 31
0.0
 11
119.018490
 21
198.319174
 31
0.0
 11
117.204042
 21
198.763996
 31
0.0
 11
114.449658
 21
200.085708
 31
0.0
 11
110.795210
 21
202.265177
 31
0.0
 11
99.107134
 21
208.129386
 31
0.0
 11
89.580695
 21
209.682874
 31
0.0
 11
82.859040
 21
206.820759
 31
0.0
 11
77.275568
 21
198.468020
 31
0.0
 11
77.465841
 21
191.078716
 31
0.0
 11
83.402444
 21
185.717700
 31
0.0
 11
86.695331
 21
184.481226
 31
0.0
 11
87.492786
 21
184.989197
 31
0.0
 11
85.929822
 21
187.327610
 31
0.0
  0
LWPOLYLINE
  5
118
100
AcDbEntity
  8
Layer_1
 62
7
100
AcDbPolyline
 90
1
 70
1
 10
85.929822
 20
187.327610
 30
0.0
  0
SPLINE
  5
119
100
AcDbEntity
  8
Layer_1
 62
7
100
AcDbSpline
 70
0
 71
3
 72
25
 73
21
 74
19
 40
0.000000
 40
0.000000
 40
0.000000
 40
0.000000
 40
3.462843
 40
6.191175
 40
8.110218
 40
10.783925
 40
15.005461
 40
18.455494
 40
25.319603
 40
32.412903
 40
40.408258
 40
42.976347
 40
44.113243
 40
46.375715
 40
55.906918
 40
67.853818
 40
79.125333
 40
91.164155
 40
104.277951
 40
117.766636
 40
117.766636
 40
117.766636
 40
117.766636
 10
46.888022
 20
192.868720
 30
0.0
 10
47.895614
 20
193.307746
 30
0.0
 10
49.697076
 20
194.092675
 30
0.0
 10
51.842822
 20
197.050151
 30
0.0
 10
49.298626
 20
198.546046
 30
0.0
 10
46.710642
 20
199.548186
 30
0.0
 10
44.002885
 20
201.853876
 30
0.0
 10
40.333189
 20
205.059742
 30
0.0
 10
39.058453
 20
211.494174
 30
0.0
 10
43.000741
 20
218.135649
 30
0.0
 10
48.109298
 20
221.421081
 30
0.0
 10
52.485944
 20
221.527808
 30
0.0
 10
53.421369
 20
223.639278
 30
0.0
 10
49.546426
 20
226.957710
 30
0.0
 10
41.797841
 20
228.735415
 30
0.0
 10
31.084878
 20
224.958692
 30
0.0
 10
21.473201
 20
216.568119
 30
0.0
 10
22.953490
 20
202.875515
 30
0.0
 10
33.113822
 20
193.091649
 30
0.0
 10
42.253688
 20
192.943725
 30
0.0
 10
46.888022
 20
192.868720
 30
0.0
 11
46.888022
 21
192.868720
 31
0.0
 11
49.859668
 21
194.646530
 31
0.0
 11
51.076541
 21
197.088458
 31
0.0
 11
49.604107
 21
198.319174
 31
0.0
 11
47.198150
 21
199.485398
 31
0.0
 11
43.822504
 21
202.020429
 31
0.0
 11
41.401948
 21
204.478810
 31
0.0
 11
39.928646
 21
211.182940
 31
0.0
 11
43.204709
 21
217.474388
 31
0.0
 11
50.192332
 21
221.360111
 31
0.0
 11
52.634479
 21
222.154464
 31
0.0
 11
53.071384
 21
223.204058
 31
0.0
 11
51.713074
 21
225.013416
 31
0.0
 11
42.583196
 21
227.750050
 31
0.0
 11
31.198980
 21
224.126787
 31
0.0
 11
23.389703
 21
215.998919
 31
0.0
 11
24.190725
 21
203.986775
 31
0.0
 11
33.536496
 21
194.787416
 31
0.0
 11
46.888022
 21
192.868720
 31
0.0
  0
LWPOLYLINE
  5
11a
100
AcDbEntity
  8
Layer_1
 62
7
100
AcDbPolyline
 90
1
 70
1
 10
46.888022
 20
192.868720
 30
0.0
  0
SPLINE
  5
11b
100
AcDbEntity
  8
Layer_1
 62
7
100
AcDbSpline
 70
0
 71
3
 72
16
 73
12
 74
10
 40
0.000000
 40
0.000000
 40
0.000000
 40
0.000000
 40
8.920888
 40
15.189849
 40
23.082665
 40
28.331418
 40
32.580336
 40
38.409785
 40
42.045208
 40
44.456944
 40
48.087132
 40
48.087132
 40
48.087132
 40
48.087132
 10
54.973497
 20
204.944213
 30
0.0
 10
56.331628
 20
207.865803
 30
0.0
 10
58.644157
 20
212.840478
 30
0.0
 10
52.375864
 20
220.229671
 30
0.0
 10
45.465598
 20
216.465095
 30
0.0
 10
41.587297
 20
211.851243
 30
0.0
 10
42.541152
 20
206.176323
 30
0.0
 10
46.477378
 20
203.561821
 30
0.0
 10
49.873089
 20
201.158360
 30
0.0
 10
53.357999
 20
201.976737
 30
0.0
 10
54.367160
 20
203.830444
 30
0.0
 10
54.973497
 20
204.944213
 30
0.0
 11
54.973497
 21
204.944213
 31
0.0
 11
56.827529
 21
213.670312
 31
0.0
 11
52.582488
 21
218.283284
 31
0.0
 11
45.154739
 21
215.613997
 31
0.0
 11
42.191719
 21
211.281571
 31
0.0
 11
42.845462
 21
207.083247
 31
0.0
 11
47.103134
 21
203.101450
 31
0.0
 11
50.385115
 21
201.537832
 31
0.0
 11
52.733343
 21
202.087646
 31
0.0
 11
54.973497
 21
204.944213
 31
0.0
  0
LWPOLYLINE
  5
11c
100
AcDbEntity
  8
Layer_1
 62
7
100
AcDbPolyline
 90
1
 70
1
 10
54.973497
 20
204.944213
 30
0.0
  0
SPLINE
  5
11d
100
AcDbEntity
  8
Layer_1
 62
7
100
AcDbSpline
 70
0
 71
3
 72
37
 73
33
 74
31
 40
0.000000
 40
0.000000
 40
0.000000
 40
0.000000
 40
1.120326
 40
2.983186
 40
6.413679
 40
12.987172
 40
18.541134
 40
23.970730
 40
27.632930
 40
28.566677
 40
30.615632
 40
32.965053
 40
34.886291
 40
38.699398
 40
46.829222
 40
54.239065
 40
60.044078
 40
61.965415
 40
63.872186
 40
66.684938
 40
69.146210
 40
71.574807
 40
73.475806
 40
76.808766
 40
79.899648
 40
86.647065
 40
102.621307
 40
117.582746
 40
137.800239
 40
147.645437
 40
152.313506
 40
153.712268
 40
153.712268
 40
153.712268
 40
153.712268
 10
79.771641
 20
207.341540
 30
0.0
 10
79.870289
 20
207.711851
 30
0.0
 10
80.132967
 20
208.697910
 30
0.0
 10
79.078881
 20
210.714323
 30
0.0
 10
77.212877
 20
214.097498
 30
0.0
 10
74.649176
 20
218.695616
 30
0.0
 10
72.930608
 20
224.262443
 30
0.0
 10
72.041394
 20
229.220086
 30
0.0
 10
72.846281
 20
232.417295
 30
0.0
 10
71.389753
 20
234.819065
 30
0.0
 10
70.412304
 20
232.232240
 30
0.0
 10
68.483951
 20
230.500617
 30
0.0
 10
66.623475
 20
233.386143
 30
0.0
 10
67.346674
 20
237.917540
 30
0.0
 10
69.141052
 20
244.199405
 30
0.0
 10
73.262724
 20
250.215911
 30
0.0
 10
77.911798
 20
252.793813
 30
0.0
 10
81.174504
 20
252.973018
 30
0.0
 10
83.111083
 20
254.170985
 30
0.0
 10
84.801959
 20
255.864776
 30
0.0
 10
86.728238
 20
257.530106
 30
0.0
 10
88.650436
 20
258.891803
 30
0.0
 10
90.694968
 20
259.850477
 30
0.0
 10
94.867762
 20
261.857787
 30
0.0
 10
88.130045
 20
262.743566
 30
0.0
 10
81.296177
 20
261.071627
 30
0.0
 10
67.763732
 20
255.320510
 30
0.0
 10
63.779088
 20
237.179068
 30
0.0
 10
69.226971
 20
222.031006
 30
0.0
 10
75.097938
 20
213.449085
 30
0.0
 10
77.169127
 20
206.825714
 30
0.0
 10
79.284031
 20
207.244894
 30
0.0
 10
79.771641
 20
207.341540
 30
0.0
 11
79.771641
 21
207.341540
 31
0.0
 11
79.961390
 21
208.445681
 31
0.0
 11
79.341178
 21
210.202263
 31
0.0
 11
77.698230
 21
213.213742
 31
0.0
 11
74.719540
 21
219.073624
 31
0.0
 11
73.022824
 21
224.362068
 31
0.0
 11
72.391280
 21
229.754811
 31
0.0
 11
72.191405
 21
233.411553
 31
0.0
 11
71.644690
 21
234.168510
 31
0.0
 11
70.351103
 21
232.579532
 31
0.0
 11
68.450217
 21
231.198802
 31
0.0
 11
67.240611
 21
232.691453
 31
0.0
 11
67.170875
 21
236.503921
 31
0.0
 11
69.634755
 21
244.251394
 31
0.0
 11
74.046474
 21
250.204755
 31
0.0
 11
79.242259
 21
252.793576
 31
0.0
 11
81.134036
 21
253.129307
 31
0.0
 11
82.803633
 21
254.050296
 31
0.0
 11
84.906638
 21
255.918168
 31
0.0
 11
86.777261
 21
257.517740
 31
0.0
 11
88.777659
 21
258.894871
 31
0.0
 11
90.474750
 21
259.751423
 31
0.0
 11
93.237700
 21
261.615484
 31
0.0
 11
90.240188
 21
262.369459
 31
0.0
 11
83.549904
 21
261.493253
 31
0.0
 11
69.719660
 21
253.499460
 31
0.0
 11
65.454094
 21
239.158971
 31
0.0
 11
71.135228
 21
219.756091
 31
0.0
 11
75.713447
 21
211.040139
 31
0.0
 11
78.379257
 21
207.208125
 31
0.0
 11
79.771641
 21
207.341540
 31
0.0
  0
LWPOLYLINE
  5
11e
100
AcDbEntity
  8
Layer_1
 62
7
100
AcDbPolyline
 90
1
 70
1
 10
79.771641
 20
207.341540
 30
0.0
  0
SPLINE
  5
11f
100
AcDbEntity
  8
Layer_1
 62
7
100
AcDbSpline
 70
0
 71
3
 72
52
 73
48
 74
46
 40
0.000000
 40
0.000000
 40
0.000000
 40
0.000000
 40
5.862282
 40
13.135475
 40
19.173719
 40
20.025186
 40
20.907121
 40
22.427788
 40
27.214945
 40
33.679160
 40
39.239164
 40
40.968549
 40
42.287489
 40
42.910707
 40
43.298073
 40
44.250712
 40
45.587193
 40
49.593896
 40
55.520768
 40
62.233443
 40
69.359016
 40
73.876360
 40
76.819986
 40
80.102635
 40
82.724948
 40
85.734549
 40
90.853707
 40
96.870674
 40
103.688286
 40
106.259546
 40
108.075373
 40
110.210574
 40
117.228029
 40
124.296552
 40
129.332575
 40
132.697110
 40
136.467248
 40
141.772534
 40
152.733566
 40
166.574825
 40
174.453298
 40
180.307343
 40
187.784257
 40
195.980430
 40
200.255578
 40
201.807326
 40
203.652779
 40
203.652779
 40
203.652779
 40
203.652779
 10
110.987850
 20
208.183488
 30
0.0
 10
112.225460
 20
209.729185
 30
0.0
 10
114.998543
 20
213.192593
 30
0.0
 10
121.212489
 20
215.614573
 30
0.0
 10
125.896146
 20
216.165601
 30
0.0
 10
128.558010
 20
215.375822
 30
0.0
 10
129.455269
 20
216.182375
 30
0.0
 10
130.478867
 20
218.308784
 30
0.0
 10
133.396367
 20
221.536619
 30
0.0
 10
137.473754
 20
225.350941
 30
0.0
 10
141.029177
 20
228.214804
 30
0.0
 10
143.667606
 20
229.559385
 30
0.0
 10
144.519509
 20
230.258144
 30
0.0
 10
145.516199
 20
230.536572
 30
0.0
 10
145.170422
 20
231.243381
 30
0.0
 10
144.648375
 20
231.885821
 30
0.0
 10
143.225108
 20
233.486562
 30
0.0
 10
140.880875
 20
236.382432
 30
0.0
 10
137.598256
 20
240.872425
 30
0.0
 10
133.894538
 20
246.343182
 30
0.0
 10
130.393447
 20
251.261977
 30
0.0
 10
127.035119
 20
255.064018
 30
0.0
 10
123.425238
 20
255.884907
 30
0.0
 10
120.400014
 20
255.529936
 30
0.0
 10
117.799358
 20
257.769346
 30
0.0
 10
118.199438
 20
261.476552
 30
0.0
 10
115.700571
 20
266.554339
 30
0.0
 10
108.533243
 20
265.165760
 30
0.0
 10
105.040202
 20
261.114357
 30
0.0
 10
104.011873
 20
257.418379
 30
0.0
 10
101.922059
 20
256.116868
 30
0.0
 10
98.347568
 20
257.698400
 30
0.0
 10
92.946249
 20
257.906662
 30
0.0
 10
86.431848
 20
255.608661
 30
0.0
 10
84.102105
 20
250.385958
 30
0.0
 10
85.274773
 20
246.248190
 30
0.0
 10
82.613704
 20
242.545187
 30
0.0
 10
76.510927
 20
239.400034
 30
0.0
 10
74.514035
 20
228.322087
 30
0.0
 10
75.121654
 20
217.401514
 30
0.0
 10
83.263745
 20
209.855061
 30
0.0
 10
90.308245
 20
213.363944
 30
0.0
 10
97.439299
 20
211.448711
 30
0.0
 10
103.923798
 20
209.369510
 30
0.0
 10
107.530202
 20
206.776258
 30
0.0
 10
110.529172
 20
206.161203
 30
0.0
 10
110.826392
 20
207.471629
 30
0.0
 10
110.987850
 20
208.183488
 30
0.0
 11
110.987850
 21
208.183488
 31
0.0
 11
114.996250
 21
212.461230
 31
0.0
 11
121.638997
 21
215.423198
 31
0.0
 11
127.673910
 21
215.623717
 31
0.0
 11
128.519646
 21
215.525090
 31
0.0
 11
129.235974
 21
216.039564
 31
0.0
 11
130.045370
 21
217.326928
 31
0.0
 11
133.042016
 21
221.060156
 31
0.0
 11
137.748561
 21
225.491240
 31
0.0
 11
142.222940
 21
228.791781
 31
0.0
 11
143.720344
 21
229.656973
 31
0.0
 11
144.856336
 21
230.327140
 31
0.0
 11
145.384980
 21
230.657195
 31
0.0
 11
145.267863
 21
231.026432
 31
0.0
 11
144.710947
 21
231.799326
 31
0.0
 11
143.834790
 21
232.808548
 31
0.0
 11
141.297745
 21
235.909689
 31
0.0
 11
137.780485
 21
240.680087
 31
0.0
 11
133.961000
 21
246.200190
 31
0.0
 11
129.723716
 21
251.928995
 31
0.0
 11
126.383511
 21
254.970283
 31
0.0
 11
123.530960
 21
255.696841
 31
0.0
 11
120.265783
 21
256.035074
 31
0.0
 11
118.313981
 21
257.786358
 31
0.0
 11
117.882630
 21
260.764887
 31
0.0
 11
115.335439
 21
265.205337
 31
0.0
 11
109.339391
 21
264.704039
 31
0.0
 11
104.745520
 21
259.666561
 31
0.0
 11
103.597987
 21
257.365573
 31
0.0
 11
102.019820
 21
256.467455
 31
0.0
 11
99.935101
 21
256.929006
 31
0.0
 11
92.936348
 21
257.440986
 31
0.0
 11
86.523975
 21
254.466849
 31
0.0
 11
84.595942
 21
249.814514
 31
0.0
 11
84.743417
 21
246.453213
 31
0.0
 11
82.800084
 21
243.222517
 31
0.0
 11
78.645840
 21
239.922771
 31
0.0
 11
75.116415
 21
229.545518
 31
0.0
 11
77.673093
 21
215.942435
 31
0.0
 11
84.028114
 21
211.285822
 31
0.0
 11
89.766961
 21
212.441451
 31
0.0
 11
97.178950
 21
211.458266
 31
0.0
 11
104.832700
 21
208.526141
 31
0.0
 11
108.649977
 21
206.601229
 31
0.0
 11
110.199326
 21
206.514977
 31
0.0
 11
110.987850
 21
208.183488
 31
0.0
  0
LWPOLYLINE
  5
120
100
AcDbEntity
  8
Layer_1
 62
7
100
AcDbPolyline
 90
1
 70
1
 10
110.987850
 20
208.183488
 30
0.0
  0
SPLINE
  5
121
100
AcDbEntity
  8
Layer_1
 62
7
100
AcDbSpline
 70
0
 71
3
 72
16
 73
12
 74
10
 40
0.000000
 40
0.000000
 40
0.000000
 40
0.000000
 40
6.875767
 40
14.541227
 40
22.011556
 40
25.593127
 40
28.496066
 40
31.910126
 40
41.420818
 40
49.841049
 40
59.644408
 40
59.644408
 40
59.644408
 40
59.644408
 10
85.821583
 20
214.162930
 30
0.0
 10
83.996033
 20
215.740583
 30
0.0
 10
80.135265
 20
219.077085
 30
0.0
 10
81.057165
 20
227.413253
 30
0.0
 10
85.642015
 20
232.296283
 30
0.0
 10
90.282302
 20
233.445833
 30
0.0
 10
93.648679
 20
232.904277
 30
0.0
 10
97.949939
 20
229.728333
 30
0.0
 10
101.871240
 20
222.516562
 30
0.0
 10
95.832245
 20
213.011632
 30
0.0
 10
89.323146
 20
213.760225
 30
0.0
 10
85.821583
 20
214.162930
 30
0.0
 11
85.821583
 21
214.162930
 31
0.0
 11
81.344305
 21
219.381182
 31
0.0
 11
81.853681
 21
227.029699
 31
0.0
 11
87.036752
 21
232.409438
 31
0.0
 11
90.522928
 21
233.230551
 31
0.0
 11
93.383697
 21
232.737543
 31
0.0
 11
96.213746
 21
230.827929
 31
0.0
 11
100.046411
 21
222.123681
 31
0.0
 11
95.590931
 21
214.978824
 31
0.0
 11
85.821583
 21
214.162930
 31
0.0
  0
LWPOLYLINE
  5
122
100
AcDbEntity
  8
Layer_1
 62
7
100
AcDbPolyline
 90
1
 70
1
 10
85.821583
 20
214.162930
 30
0.0
  0
SPLINE
  5
123
100
AcDbEntity
  8
Layer_1
 62
7
100
AcDbSpline
 70
0
 71
3
 72
16
 73
12
 74
10
 40
0.000000
 40
0.000000
 40
0.000000
 40
0.000000
 40
5.236237
 40
10.368346
 40
16.289312
 40
21.890887
 40
27.696260
 40
33.824771
 40
37.368342
 40
41.579049
 40
45.751266
 40
45.751266
 40
45.751266
 40
45.751266
 10
94.252307
 20
216.698813
 30
0.0
 10
95.662344
 20
217.917173
 30
0.0
 10
98.454379
 20
220.329665
 30
0.0
 10
97.411938
 20
226.400962
 30
0.0
 10
93.175914
 20
230.617140
 30
0.0
 10
86.625316
 20
230.472740
 30
0.0
 10
82.656606
 20
225.527530
 30
0.0
 10
82.378326
 20
219.603037
 30
0.0
 10
86.131156
 20
216.410571
 30
0.0
 10
90.186343
 20
215.499565
 30
0.0
 10
92.901141
 20
216.300289
 30
0.0
 10
94.252307
 20
216.698813
 30
0.0
 11
94.252307
 21
216.698813
 31
0.0
 11
97.601090
 21
220.724211
 31
0.0
 11
97.008834
 21
225.822032
 31
0.0
 11
92.718339
 21
229.902410
 31
0.0
 11
87.119682
 21
229.721617
 31
0.0
 11
83.318126
 21
225.334075
 31
0.0
 11
83.451385
 21
219.207013
 31
0.0
 11
86.063670
 21
216.812674
 31
0.0
 11
90.165238
 21
215.860205
 31
0.0
 11
94.252307
 21
216.698813
 31
0.0
  0
LWPOLYLINE
  5
124
100
AcDbEntity
  8
Layer_1
 62
7
100
AcDbPolyline
 90
1
 70
1
 10
94.252307
 20
216.698813
 30
0.0
  0
SPLINE
  5
125
100
AcDbEntity
  8
Layer_1
 62
7
100
AcDbSpline
 70
0
 71
3
 72
16
 73
12
 74
10
 40
0.000000
 40
0.000000
 40
0.000000
 40
0.000000
 40
1.479989
 40
2.953458
 40
4.171736
 40
5.705074
 40
6.743487
 40
7.995284
 40
10.153621
 40
11.855594
 40
13.688863
 40
13.688863
 40
13.688863
 40
13.688863
 10
87.125733
 20
217.712486
 30
0.0
 10
86.862556
 20
218.137258
 30
0.0
 10
86.337360
 20
218.984932
 30
0.0
 10
86.387047
 20
220.496541
 30
0.0
 10
87.367121
 20
221.631167
 30
0.0
 10
88.679296
 20
221.917046
 30
0.0
 10
89.999824
 20
221.503741
 30
0.0
 10
90.537636
 20
219.989320
 30
0.0
 10
90.549676
 20
218.210281
 30
0.0
 10
88.817465
 20
216.668995
 30
0.0
 10
87.703435
 20
217.356149
 30
0.0
 10
87.125733
 20
217.712486
 30
0.0
 11
87.125733
 21
217.712486
 31
0.0
 11
86.476913
 21
219.042674
 31
0.0
 11
86.567579
 21
220.513351
 31
0.0
 11
87.355665
 21
221.442394
 31
0.0
 11
88.849870
 21
221.786598
 31
0.0
 11
89.820440
 21
221.417416
 31
0.0
 11
90.373568
 21
220.294453
 31
0.0
 11
90.180769
 21
218.144745
 31
0.0
 11
88.848494
 21
217.085614
 31
0.0
 11
87.125733
 21
217.712486
 31
0.0
  0
LWPOLYLINE
  5
126
100
AcDbEntity
  8
Layer_1
 62
7
100
AcDbPolyline
 90
1
 70
1
 10
87.125733
 20
217.712486
 30
0.0
  0
SPLINE
  5
127
100
AcDbEntity
  8
Layer_1
 62
7
100
AcDbSpline
 70
0
 71
3
 72
16
 73
12
 74
10
 40
0.000000
 40
0.000000
 40
0.000000
 40
0.000000
 40
6.613362
 40
13.974168
 40
21.629560
 40
27.582489
 40
33.490151
 40
39.293849
 40
43.986773
 40
48.357024
 40
52.709016
 40
52.709016
 40
52.709016
 40
52.709016
 10
125.182260
 20
227.027852
 30
0.0
 10
123.222922
 20
228.375831
 30
0.0
 10
119.082801
 20
231.224137
 30
0.0
 10
120.507141
 20
239.524408
 30
0.0
 10
126.092837
 20
244.918735
 30
0.0
 10
133.235436
 20
243.758906
 30
0.0
 10
137.397145
 20
238.889676
 30
0.0
 10
137.058564
 20
232.838241
 30
0.0
 10
133.672793
 20
229.012901
 30
0.0
 10
129.620113
 20
226.714175
 30
0.0
 10
126.659479
 20
226.923439
 30
0.0
 10
125.182260
 20
227.027852
 30
0.0
 11
125.182260
 21
227.027852
 31
0.0
 11
120.437618
 21
231.634905
 31
0.0
 11
121.211279
 21
238.954940
 31
0.0
 11
126.975310
 21
243.992892
 31
0.0
 11
132.862430
 21
243.110176
 31
0.0
 11
136.658030
 21
238.583159
 31
0.0
 11
136.371070
 21
232.786559
 31
0.0
 11
133.418619
 21
229.138742
 31
0.0
 11
129.532838
 21
227.138793
 31
0.0
 11
125.182260
 21
227.027852
 31
0.0
  0
LWPOLYLINE
  5
128
100
AcDbEntity
  8
Layer_1
 62
7
100
AcDbPolyline
 90
1
 70
1
 10
125.182260
 20
227.027852
 30
0.0
  0
SPLINE
  5
129
100
AcDbEntity
  8
Layer_1
 62
7
100
AcDbSpline
 70
0
 71
3
 72
28
 73
24
 74
22
 40
0.000000
 40
0.000000
 40
0.000000
 40
0.000000
 40
1.940031
 40
3.340368
 40
3.953851
 40
4.290127
 40
4.777469
 40
5.426969
 40
6.749604
 40
7.881796
 40
9.151341
 40
11.231977
 40
13.213768
 40
14.815326
 40
15.599892
 40
16.420283
 40
17.931327
 40
23.278511
 40
29.110110
 40
34.460269
 40
37.457330
 40
40.297429
 40
44.055568
 40
44.055568
 40
44.055568
 40
44.055568
 10
132.646250
 20
232.358382
 30
0.0
 10
133.106805
 20
232.847267
 30
0.0
 10
133.899795
 20
233.689036
 30
0.0
 10
134.587486
 20
234.559606
 30
0.0
 10
135.120276
 20
235.540334
 30
0.0
 10
134.516732
 20
235.644577
 30
0.0
 10
134.106670
 20
235.356553
 30
0.0
 10
133.575512
 20
234.738973
 30
0.0
 10
132.843929
 20
233.938457
 30
0.0
 10
131.503062
 20
233.808042
 30
0.0
 10
130.154746
 20
234.659059
 30
0.0
 10
129.558813
 20
236.460223
 30
0.0
 10
130.129366
 20
238.566936
 30
0.0
 10
131.546331
 20
238.986920
 30
0.0
 10
132.994999
 20
238.686389
 30
0.0
 10
132.398600
 20
240.064016
 30
0.0
 10
130.598268
 20
241.560612
 30
0.0
 10
125.414889
 20
241.465440
 30
0.0
 10
121.765207
 20
236.390303
 30
0.0
 10
123.108723
 20
230.995388
 30
0.0
 10
126.761847
 20
229.302234
 30
0.0
 10
130.077286
 20
229.968422
 30
0.0
 10
131.714020
 20
231.491109
 30
0.0
 10
132.646250
 20
232.358382
 30
0.0
 11
132.646250
 21
232.358382
 31
0.0
 11
133.956406
 21
233.789190
 31
0.0
 11
134.775737
 21
234.924813
 31
0.0
 11
134.926860
 21
235.519391
 31
0.0
 11
134.599618
 21
235.596815
 31
0.0
 11
134.164845
 21
235.376646
 31
0.0
 11
133.716670
 21
234.906550
 31
0.0
 11
132.710427
 21
234.048158
 31
0.0
 11
131.584120
 21
233.932873
 31
0.0
 11
130.489670
 21
234.576242
 31
0.0
 11
129.774211
 21
236.529999
 31
0.0
 11
130.412819
 21
238.406079
 31
0.0
 11
131.948300
 21
238.861365
 31
0.0
 11
132.732134
 21
238.895255
 31
0.0
 11
132.518359
 21
239.687304
 31
0.0
 11
131.439760
 21
240.745547
 31
0.0
 11
126.092746
 21
240.702915
 31
0.0
 11
122.618630
 21
236.019105
 31
0.0
 11
124.126530
 21
230.885838
 31
0.0
 11
126.842317
 21
229.618212
 31
0.0
 11
129.640923
 21
230.101921
 31
0.0
 11
132.646250
 21
232.358382
 31
0.0
  0
LWPOLYLINE
  5
12a
100
AcDbEntity
  8
Layer_1
 62
7
100
AcDbPolyline
 90
1
 70
1
 10
132.646250
 20
232.358382
 30
0.0
  0
SPLINE
  5
12b
100
AcDbEntity
  8
Layer_1
 62
7
100
AcDbSpline
 70
0
 71
3
 72
19
 73
15
 74
13
 40
0.000000
 40
0.000000
 40
0.000000
 40
0.000000
 40
2.570253
 40
4.533239
 40
5.478315
 40
7.608367
 40
10.747168
 40
12.882612
 40
16.853356
 40
21.644600
 40
28.993143
 40
35.353142
 40
36.755150
 40
41.353700
 40
41.353700
 40
41.353700
 40
41.353700
 10
73.357465
 20
238.970161
 30
0.0
 10
74.007606
 20
239.525870
 30
0.0
 10
75.154280
 20
240.505992
 30
0.0
 10
76.560588
 20
241.691978
 30
0.0
 10
78.053843
 20
242.461025
 30
0.0
 10
79.900418
 20
243.463908
 30
0.0
 10
81.489395
 20
245.322323
 30
0.0
 10
83.546247
 20
247.903868
 30
0.0
 10
80.604464
 20
252.327086
 30
0.0
 10
74.860422
 20
248.676824
 30
0.0
 10
72.309856
 20
243.631832
 30
0.0
 10
68.499707
 20
239.389131
 30
0.0
 10
70.046023
 20
234.705936
 30
0.0
 10
71.920756
 20
237.120076
 30
0.0
 10
73.357465
 20
238.970161
 30
0.0
 11
73.357465
 21
238.970161
 31
0.0
 11
75.313361
 21
240.637695
 31
0.0
 11
76.874477
 21
241.827750
 31
0.0
 11
77.702851
 21
242.282684
 31
0.0
 11
79.529552
 21
243.378258
 31
0.0
 11
81.719439
 21
245.626919
 31
0.0
 11
82.770172
 21
247.485973
 31
0.0
 11
80.670149
 21
250.855944
 31
0.0
 11
76.185699
 21
249.169018
 31
0.0
 11
71.723384
 21
243.330453
 31
0.0
 11
69.215490
 21
237.485793
 31
0.0
 11
69.707496
 21
236.172950
 31
0.0
 11
73.357465
 21
238.970161
 31
0.0
  0
LWPOLYLINE
  5
12c
100
AcDbEntity
  8
Layer_1
 62
7
100
AcDbPolyline
 90
1
 70
1
 10
73.357465
 20
238.970161
 30
0.0
  0
SPLINE
  5
12d
100
AcDbEntity
  8
Layer_1
 62
7
100
AcDbSpline
 70
0
 71
3
 72
22
 73
18
 74
16
 40
0.000000
 40
0.000000
 40
0.000000
 40
0.000000
 40
5.146787
 40
9.176086
 40
13.327474
 40
22.730298
 40
30.409921
 40
37.432898
 40
40.006864
 40
40.613355
 40
42.932074
 40
57.981609
 40
73.618852
 40
87.761595
 40
89.637104
 40
90.291786
 40
93.002530
 40
93.002530
 40
93.002530
 40
93.002530
 10
56.795397
 20
254.029790
 30
0.0
 10
57.149285
 20
255.709480
 30
0.0
 10
57.780223
 20
258.704160
 30
0.0
 10
59.315629
 20
262.900801
 30
0.0
 10
62.348176
 20
267.929478
 30
0.0
 10
66.518938
 20
273.716330
 30
0.0
 10
73.162630
 20
278.562024
 30
0.0
 10
78.086595
 20
281.039540
 30
0.0
 10
82.444531
 20
280.277605
 30
0.0
 10
82.999999
 20
282.367399
 30
0.0
 10
74.207910
 20
281.977387
 30
0.0
 10
65.837625
 20
280.505686
 30
0.0
 10
53.947505
 20
266.918776
 30
0.0
 10
53.573612
 20
258.733103
 30
0.0
 10
55.196116
 20
250.619549
 30
0.0
 10
56.869199
 20
251.865920
 30
0.0
 10
56.828322
 20
253.064429
 30
0.0
 10
56.795397
 20
254.029790
 30
0.0
 11
56.795397
 21
254.029790
 31
0.0
 11
57.991143
 21
259.035747
 31
0.0
 11
59.415200
 21
262.805006
 31
0.0
 11
61.472944
 21
266.410517
 31
0.0
 11
67.267267
 21
273.815847
 31
0.0
 11
73.381308
 21
278.462902
 31
0.0
 11
80.084886
 21
280.556762
 31
0.0
 11
82.605550
 21
281.077871
 31
0.0
 11
82.752840
 21
281.666205
 31
0.0
 11
80.507917
 21
282.246531
 31
0.0
 11
65.900855
 21
278.624067
 31
0.0
 11
55.631937
 21
266.831159
 31
0.0
 11
54.791345
 21
252.713418
 31
0.0
 11
55.623438
 21
251.032599
 31
0.0
 11
56.170632
 21
251.392025
 31
0.0
 11
56.795397
 21
254.029790
 31
0.0
  0
LWPOLYLINE
  5
12e
100
AcDbEntity
  8
Layer_1
 62
7
100
AcDbPolyline
 90
1
 70
1
 10
56.795397
 20
254.029790
 30
0.0
  0
SPLINE
  5
12f
100
AcDbEntity
  8
Layer_1
 62
7
100
AcDbSpline
 70
0
 71
3
 72
28
 73
24
 74
22
 40
0.000000
 40
0.000000
 40
0.000000
 40
0.000000
 40
14.187383
 40
25.858847
 40
37.923543
 40
49.256778
 40
55.143622
 40
61.744570
 40
66.909578
 40
68.540629
 40
70.507052
 40
76.877117
 40
83.421575
 40
88.564855
 40
96.229726
 40
104.530916
 40
114.563414
 40
117.596047
 40
119.432675
 40
123.083561
 40
123.931162
 40
125.981871
 40
128.805287
 40
128.805287
 40
128.805287
 40
128.805287
 10
183.908430
 20
257.515370
 30
0.0
 10
185.450255
 20
262.133314
 30
0.0
 10
188.260487
 20
270.550280
 30
0.0
 10
181.472375
 20
283.534580
 30
0.0
 10
168.511838
 20
284.559139
 30
0.0
 10
159.443005
 20
282.427206
 30
0.0
 10
152.132095
 20
276.217187
 30
0.0
 10
156.654200
 20
270.240708
 30
0.0
 10
158.692475
 20
267.222847
 30
0.0
 10
161.849866
 20
264.955429
 30
0.0
 10
162.473616
 20
269.504885
 30
0.0
 10
165.149944
 20
272.978262
 30
0.0
 10
169.537046
 20
277.414375
 30
0.0
 10
175.935626
 20
279.929208
 30
0.0
 10
182.976684
 20
275.181765
 30
0.0
 10
183.475052
 20
265.669173
 30
0.0
 10
180.460003
 20
259.523527
 30
0.0
 10
176.072558
 20
255.516557
 30
0.0
 10
177.706859
 20
252.849274
 30
0.0
 10
180.530532
 20
251.691660
 30
0.0
 10
181.830785
 20
253.581543
 30
0.0
 10
182.737857
 20
255.218997
 30
0.0
 10
183.479070
 20
256.673073
 30
0.0
 10
183.908430
 20
257.515370
 30
0.0
 11
183.908430
 21
257.515370
 31
0.0
 11
186.294717
 21
271.500629
 31
0.0
 11
180.449049
 21
281.602670
 31
0.0
 11
168.614090
 21
283.945879
 31
0.0
 11
157.777023
 21
280.629227
 31
0.0
 11
153.913864
 21
276.187275
 31
0.0
 11
156.636810
 21
270.174116
 31
0.0
 11
160.047363
 21
266.295271
 31
0.0
 11
161.508834
 21
265.571095
 31
0.0
 11
162.252440
 21
267.391499
 31
0.0
 11
165.316836
 21
272.976049
 31
0.0
 11
170.198777
 21
277.334556
 31
0.0
 11
175.107940
 21
278.868651
 31
0.0
 11
181.607606
 21
274.806066
 31
0.0
 11
182.839424
 21
266.596779
 31
0.0
 11
178.291150
 21
257.654508
 31
0.0
 11
176.638817
 21
255.111546
 31
0.0
 11
177.514930
 21
253.497350
 31
0.0
 11
181.047610
 21
252.575864
 31
0.0
 11
181.582009
 21
253.233775
 31
0.0
 11
182.609785
 21
255.008340
 31
0.0
 11
183.908430
 21
257.515370
 31
0.0
  0
LWPOLYLINE
  5
130
100
AcDbEntity
  8
Layer_1
 62
7
100
AcDbPolyline
 90
1
 70
1
 10
183.908430
 20
257.515370
 30
0.0
  0
SPLINE
  5
131
100
AcDbEntity
  8
Layer_1
 62
7
100
AcDbSpline
 70
0
 71
3
 72
19
 73
15
 74
13
 40
0.000000
 40
0.000000
 40
0.000000
 40
0.000000
 40
7.424789
 40
13.750619
 40
19.374630
 40
23.513550
 40
28.911745
 40
35.093903
 40
38.223244
 40
40.564382
 40
44.804591
 40
49.023251
 40
50.794634
 40
53.796562
 40
53.796562
 40
53.796562
 40
53.796562
 10
176.076500
 20
258.693263
 30
0.0
 10
177.612616
 20
260.693933
 30
0.0
 10
180.457484
 20
264.399149
 30
0.0
 10
180.928234
 20
271.217376
 30
0.0
 10
177.278792
 20
276.329181
 30
0.0
 10
171.691375
 20
275.772318
 30
0.0
 10
167.581994
 20
272.163147
 30
0.0
 10
165.344974
 20
267.890255
 30
0.0
 10
163.828181
 20
264.030679
 30
0.0
 10
165.459362
 20
260.918629
 30
0.0
 10
168.758137
 20
259.307855
 30
0.0
 10
171.156548
 20
256.711067
 30
0.0
 10
174.436406
 20
256.373017
 30
0.0
 10
175.443279
 20
257.797443
 30
0.0
 10
176.076500
 20
258.693263
 30
0.0
 11
176.076500
 21
258.693263
 31
0.0
 11
179.952816
 21
265.025851
 31
0.0
 11
180.104337
 21
271.349865
 31
0.0
 11
176.482840
 21
275.652685
 31
0.0
 11
172.347860
 21
275.472132
 31
0.0
 11
168.062093
 21
272.189950
 31
0.0
 11
164.970640
 21
266.836260
 31
0.0
 11
164.259297
 21
263.788841
 31
0.0
 11
165.254840
 21
261.669921
 31
0.0
 11
168.613810
 21
259.082125
 31
0.0
 11
172.117464
 21
256.732336
 31
0.0
 11
173.886446
 21
256.640159
 31
0.0
 11
176.076500
 21
258.693263
 31
0.0
  0
LWPOLYLINE
  5
132
100
AcDbEntity
  8
Layer_1
 62
7
100
AcDbPolyline
 90
1
 70
1
 10
176.076500
 20
258.693263
 30
0.0
  0
SPLINE
  5
133
100
AcDbEntity
  8
Layer_1
 62
7
100
AcDbSpline
 70
0
 71
3
 72
19
 73
15
 74
13
 40
0.000000
 40
0.000000
 40
0.000000
 40
0.000000
 40
1.198918
 40
3.325980
 40
5.373914
 40
9.691656
 40
15.279021
 40
20.310820
 40
20.542848
 40
21.021884
 40
21.663766
 40
26.683540
 40
35.461719
 40
40.192880
 40
40.192880
 40
40.192880
 40
40.192880
 10
138.195020
 20
259.194730
 30
0.0
 10
137.970608
 20
259.527876
 30
0.0
 10
137.348056
 20
260.452072
 30
0.0
 10
135.899724
 20
261.541307
 30
0.0
 10
133.625561
 20
263.255679
 30
0.0
 10
129.330396
 20
263.673932
 30
0.0
 10
125.029708
 20
262.677344
 30
0.0
 10
120.037968
 20
262.758290
 30
0.0
 10
119.537858
 20
260.861810
 30
0.0
 10
119.653053
 20
260.417717
 30
0.0
 10
120.058243
 20
258.326101
 30
0.0
 10
126.838723
 20
259.487528
 30
0.0
 10
132.044088
 20
258.147458
 30
0.0
 10
136.599611
 20
258.923092
 30
0.0
 10
138.195020
 20
259.194730
 30
0.0
 11
138.195020
 21
259.194730
 31
0.0
 11
137.486202
 21
260.161675
 31
0.0
 11
135.880278
 21
261.556450
 31
0.0
 11
134.173040
 21
262.687544
 31
0.0
 11
129.921028
 21
263.438070
 31
0.0
 11
124.363819
 21
262.858353
 31
0.0
 11
119.623800
 21
261.169795
 31
0.0
 11
119.572408
 21
260.943531
 31
0.0
 11
119.635265
 21
260.468636
 31
0.0
 11
119.798740
 21
259.847920
 31
0.0
 11
124.729401
 21
258.906268
 31
0.0
 11
133.502052
 21
258.594780
 31
0.0
 11
138.195020
 21
259.194730
 31
0.0
  0
LWPOLYLINE
  5
134
100
AcDbEntity
  8
Layer_1
 62
7
100
AcDbPolyline
 90
1
 70
1
 10
138.195020
 20
259.194730
 30
0.0
  0
SPLINE
  5
135
100
AcDbEntity
  8
Layer_1
 62
7
100
AcDbSpline
 70
0
 71
3
 72
25
 73
21
 74
19
 40
0.000000
 40
0.000000
 40
0.000000
 40
0.000000
 40
3.155672
 40
8.625382
 40
13.928780
 40
18.938658
 40
24.058434
 40
28.476169
 40
30.614164
 40
31.340748
 40
33.674944
 40
37.773278
 40
41.151780
 40
45.093299
 40
46.430484
 40
47.356880
 40
48.553207
 40
49.756939
 40
51.202270
 40
52.577449
 40
52.577449
 40
52.577449
 40
52.577449
 10
126.244550
 20
265.610149
 30
0.0
 10
126.813328
 20
266.595352
 30
0.0
 10
128.367966
 20
269.288202
 30
0.0
 10
124.409860
 20
273.336236
 30
0.0
 10
119.797479
 20
276.105090
 30
0.0
 10
114.563963
 20
274.591164
 30
0.0
 10
109.993280
 20
272.392978
 30
0.0
 10
107.916046
 20
269.656665
 30
0.0
 10
105.814306
 20
267.123083
 30
0.0
 10
107.448795
 20
265.882589
 30
0.0
 10
109.600029
 20
267.990477
 30
0.0
 10
112.642714
 20
268.861124
 30
0.0
 10
116.641430
 20
268.338671
 30
0.0
 10
118.803255
 20
266.262598
 30
0.0
 10
120.114142
 20
264.628364
 30
0.0
 10
121.274786
 20
264.226392
 30
0.0
 10
122.359454
 20
264.609391
 30
0.0
 10
123.579546
 20
264.961109
 30
0.0
 10
124.880773
 20
265.303204
 30
0.0
 10
125.797558
 20
265.509545
 30
0.0
 10
126.244550
 20
265.610149
 30
0.0
 11
126.244550
 21
265.610149
 31
0.0
 11
127.414711
 21
268.540846
 31
0.0
 11
124.340189
 21
273.064676
 31
0.0
 11
119.583870
 21
275.410623
 31
0.0
 11
114.662972
 21
274.470602
 31
0.0
 11
110.147241
 21
272.058076
 31
0.0
 11
107.180910
 21
268.784353
 31
0.0
 11
106.369183
 21
266.806445
 31
0.0
 11
106.940964
 21
266.358126
 31
0.0
 11
109.078090
 21
267.296829
 31
0.0
 11
112.955974
 21
268.622862
 31
0.0
 11
116.287569
 21
268.061841
 31
0.0
 11
119.340420
 21
265.568715
 31
0.0
 11
120.299030
 21
264.636444
 31
0.0
 11
121.180443
 21
264.351273
 31
0.0
 11
122.351800
 21
264.594422
 31
0.0
 11
123.506205
 21
264.935480
 31
0.0
 11
124.904712
 21
265.300390
 31
0.0
 11
126.244550
 21
265.610149
 31
0.0
  0
LWPOLYLINE
  5
136
100
AcDbEntity
  8
Layer_1
 62
7
100
AcDbPolyline
 90
1
 70
1
 10
126.244550
 20
265.610149
 30
0.0
  0
SPLINE
  5
137
100
AcDbEntity
  8
Layer_1
 62
7
100
AcDbSpline
 70
0
 71
3
 72
19
 73
15
 74
13
 40
0.000000
 40
0.000000
 40
0.000000
 40
0.000000
 40
4.721701
 40
10.794771
 40
16.501876
 40
19.455420
 40
20.055370
 40
21.605590
 40
29.906245
 40
38.000504
 40
43.587546
 40
45.114471
 40
45.754835
 40
47.773534
 40
47.773534
 40
47.773534
 40
47.773534
 10
99.431055
 20
279.407058
 30
0.0
 10
100.289333
 20
280.736342
 30
0.0
 10
102.251531
 20
283.775355
 30
0.0
 10
106.200731
 20
287.542995
 30
0.0
 10
109.945031
 20
291.074002
 30
0.0
 10
112.668815
 20
292.033384
 30
0.0
 10
113.939390
 20
293.782794
 30
0.0
 10
108.316964
 20
292.008139
 30
0.0
 10
104.871694
 20
290.652690
 30
0.0
 10
98.466285
 20
285.045767
 30
0.0
 10
96.752808
 20
280.702321
 30
0.0
 10
97.470174
 20
277.263804
 30
0.0
 10
99.038030
 20
277.752368
 30
0.0
 10
99.261444
 20
278.692973
 30
0.0
 10
99.431055
 20
279.407058
 30
0.0
 11
99.431055
 21
279.407058
 31
0.0
 11
102.124737
 21
283.285014
 31
0.0
 11
106.334691
 21
287.662052
 31
0.0
 11
110.795210
 21
291.222224
 31
0.0
 11
113.250169
 21
292.864356
 31
0.0
 11
113.571085
 21
293.371261
 31
0.0
 11
112.033030
 21
293.177430
 31
0.0
 11
104.414312
 21
289.882585
 31
0.0
 11
98.591581
 21
284.260055
 31
0.0
 11
97.195661
 21
278.850208
 31
0.0
 11
97.855597
 21
277.473261
 31
0.0
 11
98.476973
 21
277.628049
 31
0.0
 11
99.431055
 21
279.407058
 31
0.0
  0
LWPOLYLINE
  5
138
100
AcDbEntity
  8
Layer_1
 62
7
100
AcDbPolyline
 90
1
 70
1
 10
99.431055
 20
279.407058
 30
0.0
  0
ENDSEC
  0
SECTION
  2
OBJECTS
  0
DICTIONARY
  5
C
330
0
100
AcDbDictionary
  3
ACAD_GROUP
350
D
  3
ACAD_MLINESTYLE
350
17
  0
DICTIONARY
  5
D
330
C
100
AcDbDictionary
  0
DICTIONARY
  5
1A
330
C
100
AcDbDictionary
  0
DICTIONARY
  5
17
330
C
100
AcDbDictionary
  3
STANDARD
350
18
  0
DICTIONARY
  5
19
330
C
100
AcDbDictionary
  0
ENDSEC
  0
EOF
